<svg
												style="margin-left: 10px; font-size: 30px"
												t="1659938626398"
												class="icon"
												viewBox="0 0 1024 1024"
												version="1.1"
												xmlns="http://www.w3.org/2000/svg"
												p-id="2256"
												width="32"
												height="32"
											>
												<path
													d="M512.2 124.2c52.4 0 103.2 10.3 151 30.5 46.2 19.5 87.7 47.5 123.3 83.2 35.7 35.7 63.6 77.2 83.2 123.3 20.2 47.8 30.5 98.6 30.5 151s-10.3 103.2-30.5 151c-19.5 46.2-47.5 87.7-83.2 123.3-35.7 35.7-77.2 63.6-123.3 83.2-47.8 20.2-98.6 30.5-151 30.5-52.4 0-103.2-10.3-151-30.5-46.2-19.5-87.7-47.5-123.3-83.2-35.7-35.7-63.6-77.2-83.2-123.3-20.2-47.8-30.5-98.6-30.5-151s10.3-103.2 30.5-151c19.5-46.2 47.5-87.7 83.2-123.3 35.7-35.7 77.2-63.6 123.3-83.2 47.8-20.2 98.6-30.5 151-30.5m0-60c-247.4 0-448 200.6-448 448s200.6 448 448 448 448-200.6 448-448-200.6-448-448-448z"
													p-id="2257"
													fill="#FAAD14"
												></path>
												<path
													d="M675.2 480.6H545.6V351c0-18-14.6-32.6-32.6-32.6S480.4 333 480.4 351v129.6H350.8c-18 0-32.6 14.6-32.6 32.6s14.6 32.6 32.6 32.6h129.6v129.6c0 18 14.6 32.6 32.6 32.6s32.6-14.6 32.6-32.6V545.8h129.6c18 0 32.6-14.6 32.6-32.6s-14.6-32.6-32.6-32.6z"
													p-id="2258"
													fill="#FAAD14"
												></path>
											</svg>