<?xml version="1.0" standalone="no"?><!DOCTYPE svg PUBLIC "-//W3C//DTD SVG 1.1//EN" "http://www.w3.org/Graphics/SVG/1.1/DTD/svg11.dtd"><svg class="icon" width="200px" height="200.00px" viewBox="0 0 1024 1024" version="1.1" xmlns="http://www.w3.org/2000/svg"><path  d="M898.194286 272.457143l-108.251429-135.314286c-13.897143-17.188571-34.742857-27.428571-57.051428-27.428571H291.108571c-22.308571 0-43.154286 10.24-57.051428 27.428571l-108.251429 135.314286c-10.605714 13.165714-16.091429 29.257143-16.091428 45.714286V841.142857c0 40.228571 32.914286 73.142857 73.142857 73.142857h658.285714c40.228571 0 73.142857-32.914286 73.142857-73.142857V318.171429c0-16.457143-5.485714-32.548571-16.091428-45.714286z m-139.337143 468.114286c0 10.24-8.045714 18.285714-18.285714 18.285714H283.428571c-10.24 0-18.285714-8.045714-18.285714-18.285714V640c0-10.24 8.045714-18.285714 18.285714-18.285714h18.285715c10.24 0 18.285714 8.045714 18.285714 18.285714v64h384V640c0-10.24 8.045714-18.285714 18.285714-18.285714h18.285715c10.24 0 18.285714 8.045714 18.285714 18.285714v100.571429z m-183.954286-287.451429c-10.971429-10.605714-10.971429-28.16 0-38.765714 5.485714-5.485714 12.434286-8.045714 19.748572-8.045715 6.948571 0 14.262857 2.56 19.748571 8.045715l71.314286 70.582857c6.217143 6.217143 9.142857 13.897143 9.142857 21.942857 0 3.657143-0.731429 7.314286-2.194286 10.605714-1.462857 4.022857-3.657143 7.68-6.582857 10.971429l-71.68 70.948571c-10.971429 10.605714-28.525714 10.605714-39.131429 0-10.971429-10.605714-10.971429-28.16 0-38.765714l26.697143-26.331429h-245.028571c-15.36 0-27.794286-12.434286-27.794286-27.428571s12.434286-27.428571 27.428572-27.428571h245.028571l-26.697143-26.331429zM223.817143 237.714286l53.028571-66.194286c3.657143-4.388571 8.777143-6.948571 14.262857-6.948571h441.782858c5.485714 0 10.971429 2.56 14.262857 6.948571l53.028571 66.194286H223.817143z" /></svg>