<?xml version="1.0" standalone="no"?><!DOCTYPE svg PUBLIC "-//W3C//DTD SVG 1.1//EN" "http://www.w3.org/Graphics/SVG/1.1/DTD/svg11.dtd"><svg class="icon" width="200px" height="200.00px" viewBox="0 0 1024 1024" version="1.1" xmlns="http://www.w3.org/2000/svg"><path  d="M736.81 561.945c107.348 0 195.19 89.56 195.19 199.028C932 870.44 844.168 960 736.81 960c-107.357 0-195.189-89.569-195.189-199.027 0-109.459 87.781-199.028 195.19-199.028z m-9.569 73.942c-5.003 0-9.555 3.042-11.77 7.833l-28.502 64.284c-1.723 3.792-5.127 6.416-9.064 7.041L616.02 726.67c-4.963 0.75-9.064 4.458-10.622 9.54-1.559 5.083-0.287 10.666 3.322 14.416l47.572 39.995c2.871 2.958 4.143 7.25 3.486 11.415l-13.082 67.868c-0.82 5.29 2.378 9.04 6.439 12.207 4.06 3.166 9.432 3.583 13.861 1.083l54.668-32.913a11.482 11.482 0 0 1 11.237 0l57.046 32.871c1.928 1.084 4.02 1.625 6.11 1.625a12.48 12.48 0 0 0 7.711-2.666c4.02-3.167 4.84-6.958 4.02-12.207l-10.664-66.451c-0.656-4.166 0.656-8.457 3.486-11.415l45.194-41.37c3.568-3.75 4.88-9.333 3.24-14.457-1.517-5.083-5.66-8.791-10.58-9.541l-62.994-11.624c-3.937-0.583-7.34-3.25-9.104-7.04l-27.354-64.285c-2.215-4.791-6.767-7.833-11.77-7.833zM767.32 64c35.213 0.108 63.732 29.188 63.838 65.092v402.622c-29.274-14.93-63.432-19.91-97.59-19.91-33.522 0-65.282 6.59-94.126 18.592-17.74-46.991-53.057-85.437-97.89-107.275 32.151-25.362 52.833-64.646 52.974-108.595C594.526 238.14 532.386 176 456 176c-76.14 0-138.28 62.14-138.28 138.526 0 43.946 20.618 83.228 52.74 108.583C305.128 454.932 260 522.017 260 599.439 260 612.947 271.053 624 284.561 624c13.51 0 24.562-11.053 24.562-24.561 0-79.094 62.68-143.686 141.026-146.754 1.94 0.081 3.891 0.122 5.851 0.122s3.91-0.04 5.85-0.13c62.708 2.462 115.38 44.333 133.91 101.507-64.49 44.362-106.181 119.589-106.181 206.406 0 54.73 19.526 109.469 48.8 149.268H155.837c-35.212-0.107-63.731-29.187-63.837-65.092V129.092c0.106-35.904 28.625-64.984 63.837-65.092zM456 225.123c49.123 0 89.404 40.28 89.404 89.403 0 47.3-37.347 86.175-83.973 88.987-1.804-0.05-3.615-0.074-5.431-0.074-1.82 0-3.634 0.025-5.44 0.082-46.605-2.81-83.718-41.462-83.718-88.995 0-49.368 40.035-89.403 89.158-89.403z" /></svg>