<svg xmlns="http://www.w3.org/2000/svg" xmlns:xlink="http://www.w3.org/1999/xlink" fill="none" version="1.1" width="24" height="24" viewBox="0 0 24 24"><defs><mask id="master_svg0_1_225615"><g><path d="M0,12.0012C0,18.6278,5.37217,24,12,24L12,24C18.6278,24,24,18.6278,24,12.0012L24,12.0012C24,5.37337,18.6278,0,12,0L12,0C5.37217,0,0,5.37337,0,12.0012L0,12.0012Z" fill-rule="evenodd" fill="#FFFFFF" fill-opacity="1"/></g></mask><mask id="master_svg1_1_225599"><g><path d="M8.836662670288085,12.79424532672119C8.940712670288086,13.187797326721192,9.703792670288086,14.799083326721192,7.992244670288086,17.32069332672119L7.992244670288086,17.32069332672119C6.278302670288086,19.84229332672119,11.933232670288085,21.207163326721194,11.933232670288085,21.207163326721194L11.933232670288085,21.207163326721194C11.933232670288085,21.207163326721194,17.297532670288085,19.38773332672119,17.585782670288086,18.498953326721193L17.585782670288086,18.498953326721193C19.361952670288083,16.98934332672119,14.284672670288085,18.51928332672119,15.254672670288086,12.960517326721192L15.254672670288086,12.960517326721192C14.421022670288085,12.43179432672119,13.355342670288085,12.261933326721191,12.332722670288085,12.261933326721191L12.332722670288085,12.261933326721191C10.517112670288085,12.261933326721191,8.836662670288085,12.79424532672119,8.836662670288085,12.79424532672119L8.836662670288085,12.79424532672119Z" fill-rule="evenodd" fill="#FFFFFF" fill-opacity="1"/></g></mask><mask id="master_svg2_1_225605"><g><path d="M8.843366622924805,12.761565577392577C8.893564222924805,12.953862577392577,9.103915622924804,13.442370577392579,9.100330622924805,14.186470577392578L9.100330622924805,14.186470577392578C10.559646622924804,15.567190577392578,13.371906622924804,17.474640577392577,15.991736622924805,16.74486057739258L15.991736622924805,16.74486057739258C15.933176622924805,16.66603057739258,15.879396622924805,16.58362057739258,15.827996622924804,16.49882057739258L15.827996622924804,16.49882057739258C15.284196622924805,15.847870577392579,14.931616622924805,14.783670577392577,15.255506622924806,12.927585577392579L15.255506622924806,12.927585577392579C14.423666622924806,12.398469577392579,13.357566622924804,12.230060577392578,12.335686622924804,12.230060577392578L12.335686622924804,12.230060577392578C10.521396622924804,12.230060577392578,8.843366622924805,12.761565577392577,8.843366622924805,12.761565577392577L8.843366622924805,12.761565577392577Z" fill-rule="evenodd" fill="#FFFFFF" fill-opacity="1"/></g></mask><mask id="master_svg3_1_225639"><g><path d="M8.218983899047851,7.54786108581543C6.709495899047852,19.04909108581543,18.45170589904785,17.51759108581543,15.826245899047851,6.55520108581543L15.826245899047851,6.55520108581543C15.578645899047851,4.67284408581543,13.697165899047851,4.54950908581543,12.353935899047851,4.30164178581543L12.353935899047851,4.30164178581543C12.353935899047851,4.30164178581543,12.072845899047852,4.23219108581543,11.654215899047852,4.23219108581543L11.654215899047852,4.23219108581543C10.625555899047852,4.23219108581543,8.763213899047852,4.6500930858154295,8.218983899047851,7.54786108581543L8.218983899047851,7.54786108581543Z" fill-rule="evenodd" fill="#FFFFFF" fill-opacity="1"/></g></mask><mask id="master_svg4_1_225623"><g><path d="M12.044093796386719,17.879049580078124L7.691423796386719,16.665069580078125C7.691423796386719,16.665069580078125,5.057333796386718,17.957989580078124,2.8792037963867188,19.778369580078124L2.8792037963867188,19.778369580078124C5.080073796386719,22.351049580078126,8.352043796386718,23.983649580078126,12.005793796386719,23.983649580078126L12.005793796386719,23.983649580078126C15.62960379638672,23.983649580078126,18.876503796386718,22.378559580078125,21.076103796386718,19.842949580078127L21.076103796386718,19.842949580078127C19.07270379638672,18.096729580078126,16.39440379638672,16.665069580078125,16.39440379638672,16.665069580078125L16.39440379638672,16.665069580078125L12.044093796386719,17.879049580078124Z" fill-rule="evenodd" fill="#FFFFFF" fill-opacity="1"/></g></mask><mask id="master_svg5_1_225644"><g><path d="M7.808860778808594,16.569531171875L8.764849778808594,20.565751171875L12.217160778808594,17.789471171875C12.217160778808594,17.789471171875,9.976560778808594,17.049611171875,9.020580778808593,15.199951171875L9.020580778808593,15.199951171875C8.690760778808594,15.642911171875,7.847100378808594,16.569531171875,7.808860778808594,16.569531171875L7.808860778808594,16.569531171875Z" fill-rule="evenodd" fill="#FFFFFF" fill-opacity="1"/></g></mask><mask id="master_svg6_1_225630"><g><path d="M11.997074127197266,17.88087199584961L15.450204127197265,20.57507199584961L16.405214127197265,16.66375199584961C16.392074127197265,16.68532199584961,15.557774127197266,15.70179899584961,15.229074127197265,15.26095199584961L15.229074127197265,15.26095199584961C14.274054127197266,17.06986199584961,11.997074127197266,17.88087199584961,11.997074127197266,17.88087199584961L11.997074127197266,17.88087199584961Z" fill-rule="evenodd" fill="#FFFFFF" fill-opacity="1"/></g></mask><mask id="master_svg7_1_225633"><g><path d="M14.049823760986328,4.059338675964355L14.343448760986329,6.169095675964355C15.686933760986328,6.442095675964355,15.881083760986328,8.582985675964355,15.907453760986328,9.193645675964355L15.907453760986328,9.193645675964355C15.913443760986329,9.305005675964356,15.948203760986328,9.411565675964354,16.005723760986328,9.504965675964355L16.005723760986328,9.504965675964355L16.518673760986328,10.313185675964355C16.518673760986328,10.313185675964355,16.343693760986326,8.979315675964354,17.145473760986327,8.082485675964357L17.145473760986327,8.082485675964357C17.145473760986327,8.081295675964355,17.365993760986328,3.8605756759643555,15.014592760986329,3.8605756759643555L15.014592760986329,3.8605756759643555C14.731753760986328,3.8605756759643555,14.411761760986328,3.9228387759643555,14.049823760986328,4.059338675964355L14.049823760986328,4.059338675964355Z" fill-rule="evenodd" fill="#FFFFFF" fill-opacity="1"/></g></mask><mask id="master_svg8_1_225618"><g><path d="M12.028655989379882,2.552711481875C11.022005989379883,2.570678671875,9.125865989379882,2.874923671875,8.144315989379884,3.387587671875L8.144315989379884,3.387587671875L8.623735989379883,3.713393671875C6.464565989379883,5.308883671875,6.868662089379883,8.042293671875,6.868662089379883,8.042293671875L6.868662089379883,8.042293671875C7.513063989379883,8.687913671875,7.513063989379883,10.301363671875,7.513063989379883,10.301363671875L7.513063989379883,10.301363671875L8.157465989379883,9.654543671875C8.157465989379883,9.654543671875,7.907595989379883,7.789553671875,9.124665989379883,7.072063671875L9.124665989379883,7.072063671875C10.254465989379883,6.404883671875,11.240795989379883,6.748653671875,12.249835989379882,6.748653671875L12.249835989379882,6.748653671875C14.950585989379883,6.748653671875,15.706175989379883,5.7293136718749995,15.575855989379884,4.489573671875L15.575855989379884,4.489573671875C15.511305989379883,3.8571336718750002,14.559645989379883,2.551513671875,12.147015989379883,2.551513671875L12.147015989379883,2.551513671875C12.107565989379882,2.551513671875,12.068115989379884,2.551513671875,12.028655989379882,2.552711481875L12.028655989379882,2.552711481875Z" fill-rule="evenodd" fill="#FFFFFF" fill-opacity="1"/></g></mask><mask id="master_svg9_1_225595"><g><path d="M16.179642068603517,9.74931081463623C16.159289068603517,10.20951181463623,16.071892068603514,11.56381781463623,15.663639068603516,12.61211781463623L15.663639068603516,12.61211781463623C17.129039068603515,12.13876781463623,17.659409068603516,9.35126781463623,16.851289068603517,9.35126781463623L16.851289068603517,9.35126781463623C16.686069068603516,9.35126781463623,16.462187068603516,9.46840981463623,16.179642068603517,9.74931081463623L16.179642068603517,9.74931081463623Z" fill-rule="evenodd" fill="#FFFFFF" fill-opacity="1"/></g></mask><mask id="master_svga_1_225609"><g><path d="M8.59721947631836,12.61211781463623C8.19015947631836,11.56381781463623,8.10156947631836,10.20951181463623,8.08240947631836,9.74931081463623L8.08240947631836,9.74931081463623C7.799869476318359,9.46840981463623,7.57598847631836,9.35126781463623,7.41077247631836,9.35126781463623L7.41077247631836,9.35126781463623C6.602646476318359,9.35126781463623,7.1318189763183595,12.13876781463623,8.59721947631836,12.61211781463623L8.59721947631836,12.61211781463623Z" fill-rule="evenodd" fill="#FFFFFF" fill-opacity="1"/></g></mask></defs><g><g><g></g><g mask="url(#master_svg0_1_225615)"><g><path d="M-2.0050048828125,26.00609375L26.0049951171875,26.00609375L26.0049951171875,-2.00390625L-2.0050048828125,-2.00390625L-2.0050048828125,26.00609375Z" fill="#CFE5FF" fill-opacity="1"/></g></g></g><g><g><g></g><g mask="url(#master_svg1_1_225599)"><g><path d="M5.523611068725586,23.35194267730713L20.110711068725585,23.35194267730713L20.110711068725585,10.117142677307129L5.523611068725586,10.117142677307129L5.523611068725586,23.35194267730713Z" fill="#EDE7E6" fill-opacity="1"/></g></g></g></g><g><g><g></g><g mask="url(#master_svg2_1_225605)"><g><path d="M6.840192794799805,18.9067100402832L17.993592794799802,18.9067100402832L17.993592794799802,10.228260040283203L6.840192794799805,10.228260040283203L6.840192794799805,18.9067100402832Z" fill="#D8D3D2" fill-opacity="1"/></g></g></g></g><g><g><g></g><g mask="url(#master_svg3_1_225639)"><g><path d="M5.939142227172852,17.649303170776367L18.35474222717285,17.649303170776367L18.35474222717285,2.085203170776367L5.939142227172852,2.085203170776367L5.939142227172852,17.649303170776367Z" fill="#F7EDEB" fill-opacity="1"/></g></g></g></g><g><g><g><path d="M12.044093796386719,17.879049580078124L7.691423796386719,16.665069580078125C7.691423796386719,16.665069580078125,5.057333796386718,17.957989580078124,2.8792037963867188,19.778369580078124L2.8792037963867188,19.778369580078124C5.080073796386719,22.351049580078126,8.352043796386718,23.983649580078126,12.005793796386719,23.983649580078126L12.005793796386719,23.983649580078126C15.62960379638672,23.983649580078126,18.876503796386718,22.378559580078125,21.076103796386718,19.842949580078127L21.076103796386718,19.842949580078127C19.07270379638672,18.096729580078126,16.39440379638672,16.665069580078125,16.39440379638672,16.665069580078125L16.39440379638672,16.665069580078125L12.044093796386719,17.879049580078124Z" fill-rule="evenodd" fill="#4077FF" fill-opacity="1"/></g><g mask="url(#master_svg4_1_225623)"><g><path d="M-1.0617141723632812,28.383907202148436L25.07338582763672,28.383907202148436L25.07338582763672,14.660507202148438L-1.0617141723632812,14.660507202148438L-1.0617141723632812,28.383907202148436Z" fill="#4077FF" fill-opacity="1"/></g></g></g></g><g><g><g></g><g mask="url(#master_svg5_1_225644)"><g><path d="M5.528831481933594,22.849990263671877L14.498401481933593,22.849990263671877L14.498401481933593,12.914520263671875L5.528831481933594,12.914520263671875L5.528831481933594,22.849990263671877Z" fill="#FFFFFF" fill-opacity="1"/></g></g></g></g><g><g><g></g><g mask="url(#master_svg6_1_225630)"><g><path d="M9.715335845947266,22.860756243896482L18.687005845947265,22.860756243896482L18.687005845947265,12.974056243896484L9.715335845947266,12.974056243896484L9.715335845947266,22.860756243896482Z" fill="#F9F5F5" fill-opacity="1"/></g></g></g></g><g><g><g></g><g mask="url(#master_svg7_1_225633)"><g><path d="M11.926166534423828,12.43494105682373L19.275186534423828,12.43494105682373L19.275186534423828,1.7388410568237305L11.926166534423828,1.7388410568237305L11.926166534423828,12.43494105682373Z" fill="#4F393E" fill-opacity="1"/></g></g></g></g><g><g><g></g><g mask="url(#master_svg8_1_225618)"><g><path d="M4.720277786254883,12.423885595703124L17.708777786254885,12.423885595703124L17.708777786254885,0.428985595703125L4.720277786254883,0.428985595703125L4.720277786254883,12.423885595703124Z" fill="#5A4146" fill-opacity="1"/></g></g></g></g><g><g><g></g><g mask="url(#master_svg9_1_225595)"><g><path d="M13.658267974853516,14.614275622253418L19.234937974853516,14.614275622253418L19.234937974853516,7.347895622253418L13.658267974853516,7.347895622253418L13.658267974853516,14.614275622253418Z" fill="#EFE7E6" fill-opacity="1"/></g></g></g></g><g><g><g></g><g mask="url(#master_svga_1_225609)"><g><path d="M5.025905609130859,14.614275622253418L10.60257560913086,14.614275622253418L10.60257560913086,7.347895622253418L5.025905609130859,7.347895622253418L5.025905609130859,14.614275622253418Z" fill="#EFE7E6" fill-opacity="1"/></g></g></g></g></g></svg>