<?xml version="1.0" standalone="no"?><!DOCTYPE svg PUBLIC "-//W3C//DTD SVG 1.1//EN" "http://www.w3.org/Graphics/SVG/1.1/DTD/svg11.dtd"><svg class="icon" width="200px" height="200.00px" viewBox="0 0 1024 1024" version="1.1" xmlns="http://www.w3.org/2000/svg"><path   d="M585.142857 834.194286V914.285714h80.091429l213.577143-213.577143-80.091429-80.091428zM891.977143 554.057143a19.017143 19.017143 0 0 0-26.697143 0l-39.862857 39.862857 80.091428 80.091429 39.862858-39.862858c7.314286-7.314286 7.314286-19.382857 0-26.697142l-53.394286-53.394286zM841.142857 109.714286H182.857143C122.148571 109.714286 73.142857 158.72 73.142857 219.428571v585.142858c0 60.708571 49.005714 109.714286 109.714286 109.714285h329.142857v-73.142857H193.828571c-26.331429 0-47.542857-21.211429-47.542857-47.542857v-343.771429c0-26.331429 21.211429-47.542857 47.542857-47.542857h636.342858c26.331429 0 47.542857 21.211429 47.542857 47.542857v25.6h73.142857V219.428571c0-60.708571-49.005714-109.714286-109.714286-109.714285z" /></svg>