<?xml version="1.0" standalone="no"?><!DOCTYPE svg PUBLIC "-//W3C//DTD SVG 1.1//EN" "http://www.w3.org/Graphics/SVG/1.1/DTD/svg11.dtd"><svg class="icon" width="200px" height="200.00px" viewBox="0 0 1024 1024" version="1.1" xmlns="http://www.w3.org/2000/svg"><path   d="M768 73.142857H256C195.291429 73.142857 146.285714 122.148571 146.285714 182.857143v658.285714c0 60.708571 49.005714 109.714286 109.714286 109.714286h512c60.708571 0 109.714286-49.005714 109.714286-109.714286V182.857143c0-60.708571-49.005714-109.714286-109.714286-109.714286zM256 658.285714H219.428571v-292.571428h36.571429v292.571428z m73.142857 0H292.571429v-292.571428h36.571428v292.571428z m109.714286 0h-73.142857v-292.571428h73.142857v292.571428z m73.142857 0h-36.571429v-292.571428h36.571429v292.571428z m73.142857 0h-36.571428v-292.571428h36.571428v292.571428z m109.714286 0h-73.142857v-292.571428h73.142857v292.571428z m109.714286 0h-73.142858v-292.571428h73.142858v292.571428z" /></svg>