<?xml version="1.0" standalone="no"?><!DOCTYPE svg PUBLIC "-//W3C//DTD SVG 1.1//EN" "http://www.w3.org/Graphics/SVG/1.1/DTD/svg11.dtd"><svg class="icon" width="200px" height="200.00px" viewBox="0 0 1024 1024" version="1.1" xmlns="http://www.w3.org/2000/svg"><path   d="M804.571429 73.142857H365.714286c-40.228571 0-73.142857 32.914286-73.142857 73.142857h460.8c20.114286 0 36.571429 16.457143 36.571428 36.571429v621.714286h14.628572c40.228571 0 73.142857-32.914286 73.142857-73.142858V146.285714c0-40.228571-32.914286-73.142857-73.142857-73.142857zM658.285714 219.428571H219.428571c-40.228571 0-73.142857 32.914286-73.142857 73.142858v585.142857c0 40.228571 32.914286 73.142857 73.142857 73.142857h438.857143c40.228571 0 73.142857-32.914286 73.142857-73.142857V292.571429c0-40.228571-32.914286-73.142857-73.142857-73.142858z m-64 393.142858h-310.857143c-14.994286 0-27.428571-12.434286-27.428571-27.428572s12.434286-27.428571 27.428571-27.428571h310.857143c14.994286 0 27.428571 12.434286 27.428572 27.428571s-12.434286 27.428571-27.428572 27.428572z" /></svg>