<?xml version="1.0" standalone="no"?><!DOCTYPE svg PUBLIC "-//W3C//DTD SVG 1.1//EN" "http://www.w3.org/Graphics/SVG/1.1/DTD/svg11.dtd"><svg class="icon" width="200px" height="200.00px" viewBox="0 0 1024 1024" version="1.1" xmlns="http://www.w3.org/2000/svg"><path   d="M938.788571 448.365714L536.137143 82.285714a35.437714 35.437714 0 0 0-47.908572 0L85.211429 448.365714c-24.502857 22.308571-9.142857 63.634286 24.137142 63.634286H182.857143v329.142857c0 40.228571 32.914286 73.142857 73.142857 73.142857h512c40.228571 0 73.142857-32.914286 73.142857-73.142857v-329.142857h73.508572c33.28 0 48.64-41.325714 24.137142-63.634286z m-224.548571 126.171429l-142.994286 142.994286c-10.605714 10.605714-28.16 10.605714-38.765714 0s-10.605714-28.16 0-38.765715l102.765714-102.765714H326.582857c-14.994286 0-27.428571-12.434286-27.428571-27.428571s12.434286-27.428571 27.428571-27.428572h308.662857l-102.765714-102.765714c-10.605714-10.605714-10.605714-28.16 0-38.765714s28.16-10.605714 38.765714 0l142.994286 142.994285c14.262857 14.262857 14.262857 37.668571 0 51.931429z" /></svg>