<svg xmlns="http://www.w3.org/2000/svg" xmlns:xlink="http://www.w3.org/1999/xlink" fill="none" version="1.1" width="16" height="16" viewBox="0 0 16 16"><defs><clipPath id="master_svg0_1_079628"><path d="M0 0C0 0 0 0 0 0L8 0C12.418277998646346 0 16 3.5817220013536533 16 8L16 8C16 12.418277998646346 12.418277998646346 16 8 16L0 16C0 16 0 16 0 16Z"/></clipPath></defs><g clip-path="url(#master_svg0_1_079628)"><g><path d="M13.5,5.6Q13.5,5.49789,13.46,5.40396Q13.4199,5.31002,13.3463,5.23931L9.59627,1.639306Q9.526430000000001,1.572264,9.43662,1.536132Q9.34681,1.5,9.25,1.5L4.25,1.5Q3.531078,1.5,3.0198506,1.99077824Q2.5,2.4898350000000002,2.5,3.2L2.5,12.8Q2.5,13.5102,3.0198509,14.0092Q3.531076,14.5,4.25,14.5L11.75,14.5Q12.46892,14.5,12.98015,14.0092Q13.5,13.5102,13.5,12.8L13.5,5.6ZM12.5,5.81311L9.04885,2.5L4.25,2.5Q3.933388,2.5,3.712382,2.712165Q3.5,2.916053,3.5,3.2L3.5,12.8Q3.5,13.0839,3.712382,13.2878Q3.9333869999999997,13.5,4.25,13.5L11.75,13.5Q12.06661,13.5,12.28762,13.2878Q12.5,13.0839,12.5,12.8L12.5,5.81311Z" fill-rule="evenodd" fill="#FFFFFF" fill-opacity="1"/></g><g><path d="M9,6.5L13,6.5Q13.04925,6.5,13.09755,6.49039Q13.14584,6.48078,13.19134,6.46194Q13.23684,6.44309,13.27778,6.41573Q13.31873,6.38837,13.35355,6.35355Q13.38837,6.31873,13.41573,6.27778Q13.44309,6.23684,13.46194,6.19134Q13.48078,6.14584,13.49039,6.09755Q13.5,6.04925,13.5,6Q13.5,5.95075,13.49039,5.90245Q13.48078,5.854150000000001,13.46194,5.80866Q13.44309,5.76316,13.41573,5.7222100000000005Q13.38837,5.68127,13.35355,5.64645Q13.31873,5.61162,13.27778,5.5842600000000004Q13.23684,5.55691,13.19134,5.53806Q13.14584,5.51921,13.09755,5.50961Q13.04925,5.5,13,5.5L9.5,5.5L9.5,2Q9.5,1.9507543,9.490393,1.9024549Q9.480785000000001,1.854155,9.46194,1.8086579999999999Q9.443094,1.763161,9.415735,1.722215Q9.388375,1.681269,9.353553,1.646447Q9.318731,1.611625,9.277785,1.584265Q9.236839,1.5569060000000001,9.191342,1.53806Q9.145845,1.519215,9.0975451,1.509607Q9.0492457,1.5,9,1.5Q8.9507543,1.5,8.9024549,1.509607Q8.854155,1.519215,8.808658,1.53806Q8.763161,1.5569060000000001,8.722215,1.584265Q8.681269,1.611625,8.646447,1.646447Q8.611625,1.681269,8.584265,1.722215Q8.556906,1.763161,8.53806,1.8086579999999999Q8.519214999999999,1.854155,8.509607,1.9024549Q8.5,1.9507543,8.5,2L8.5,6Q8.5,6.04925,8.509607,6.09755Q8.519214999999999,6.14584,8.53806,6.19134Q8.556906,6.23684,8.584265,6.27778Q8.611625,6.31873,8.646447,6.35355Q8.681269,6.38837,8.722215,6.41573Q8.763161,6.44309,8.808658,6.46194Q8.854155,6.48078,8.9024549,6.49039Q8.9507543,6.5,9,6.5Z" fill-rule="evenodd" fill="#FFFFFF" fill-opacity="1"/></g><g><path d="M10,7.5L5,7.5Q4.9507543,7.5,4.9024549,7.509607Q4.854155,7.519215,4.808658,7.53806Q4.763161,7.556906,4.722215,7.584265Q4.681269,7.611625,4.646447,7.646447Q4.611625,7.681269,4.584265,7.722215Q4.556906,7.763161,4.53806,7.808658Q4.519215,7.854155,4.509607,7.9024549Q4.5,7.9507543,4.5,8Q4.5,8.0492457,4.509607,8.0975451Q4.519215,8.145845,4.53806,8.191342Q4.556906,8.236839,4.584265,8.277785Q4.611625,8.318731,4.646447,8.353553Q4.681269,8.388375,4.722215,8.415735Q4.763161,8.443094,4.808658,8.46194Q4.854155,8.480785000000001,4.9024549,8.490393Q4.9507543,8.5,5,8.5L10,8.5Q10.04925,8.5,10.09755,8.490393Q10.14584,8.480785000000001,10.19134,8.46194Q10.23684,8.443094,10.27778,8.415735Q10.31873,8.388375,10.35355,8.353553Q10.38837,8.318731,10.41573,8.277785Q10.44309,8.236839,10.46194,8.191342Q10.48078,8.145845,10.49039,8.0975451Q10.5,8.0492457,10.5,8Q10.5,7.9507543,10.49039,7.9024549Q10.48078,7.854155,10.46194,7.808658Q10.44309,7.763161,10.41573,7.722215Q10.38837,7.681269,10.35355,7.646447Q10.31873,7.611625,10.27778,7.584265Q10.23684,7.556906,10.19134,7.53806Q10.14584,7.519215,10.09755,7.509607Q10.04925,7.5,10,7.5Z" fill-rule="evenodd" fill="#FFFFFF" fill-opacity="1"/></g><g><path d="M10,10.5L5,10.5Q4.9507543,10.5,4.9024549,10.509607Q4.854155,10.519214999999999,4.808658,10.53806Q4.763161,10.556906,4.722215,10.584265Q4.681269,10.611625,4.646447,10.646447Q4.611625,10.681269,4.584265,10.722215Q4.556906,10.763161,4.53806,10.808658Q4.519215,10.854155,4.509607,10.9024549Q4.5,10.9507543,4.5,11Q4.5,11.0492457,4.509607,11.0975451Q4.519215,11.145845,4.53806,11.191342Q4.556906,11.236839,4.584265,11.277785Q4.611625,11.318731,4.646447,11.353553Q4.681269,11.388375,4.722215,11.415735Q4.763161,11.443094,4.808658,11.46194Q4.854155,11.480785000000001,4.9024549,11.490393Q4.9507543,11.5,5,11.5L10,11.5Q10.04925,11.5,10.09755,11.490393Q10.14584,11.480785000000001,10.19134,11.46194Q10.23684,11.443094,10.27778,11.415735Q10.31873,11.388375,10.35355,11.353553Q10.38837,11.318731,10.41573,11.277785Q10.44309,11.236839,10.46194,11.191342Q10.48078,11.145845,10.49039,11.0975451Q10.5,11.0492457,10.5,11Q10.5,10.9507543,10.49039,10.9024549Q10.48078,10.854155,10.46194,10.808658Q10.44309,10.763161,10.41573,10.722215Q10.38837,10.681269,10.35355,10.646447Q10.31873,10.611625,10.27778,10.584265Q10.23684,10.556906,10.19134,10.53806Q10.14584,10.519214999999999,10.09755,10.509607Q10.04925,10.5,10,10.5Z" fill-rule="evenodd" fill="#FFFFFF" fill-opacity="1"/></g><g><path d="M7,5.5L5,5.5Q4.9507543,5.5,4.9024549,5.509607Q4.854155,5.519215,4.808658,5.53806Q4.763161,5.556906,4.722215,5.584265Q4.681269,5.611625,4.646447,5.646447Q4.611625,5.681269,4.584265,5.722215Q4.556906,5.763161,4.53806,5.808658Q4.519215,5.854155,4.509607,5.9024549Q4.5,5.9507543,4.5,6Q4.5,6.0492457,4.509607,6.0975451Q4.519215,6.145845,4.53806,6.191342Q4.556906,6.236839,4.584265,6.277785Q4.611625,6.318731,4.646447,6.353553Q4.681269,6.388375,4.722215,6.415735Q4.763161,6.443094,4.808658,6.46194Q4.854155,6.480785,4.9024549,6.490393Q4.9507543,6.5,5,6.5L7,6.5Q7.04925,6.5,7.09754,6.490393Q7.14584,6.480785,7.19134,6.46194Q7.23684,6.443094,7.27778,6.415735Q7.31873,6.388375,7.35355,6.353553Q7.38838,6.318731,7.41573,6.277785Q7.44309,6.236839,7.46194,6.191342Q7.48078,6.145845,7.49039,6.0975451Q7.5,6.0492457,7.5,6Q7.5,5.9507543,7.49039,5.9024549Q7.48078,5.854155,7.46194,5.808658Q7.44309,5.763161,7.41573,5.722215Q7.38838,5.681269,7.35355,5.646447Q7.31873,5.611625,7.2777899999999995,5.584265Q7.23684,5.556906,7.19134,5.53806Q7.14584,5.519215,7.09754,5.509607Q7.04925,5.5,7,5.5Z" fill-rule="evenodd" fill="#FFFFFF" fill-opacity="1"/></g></g></svg>