<?xml version="1.0" standalone="no"?><!DOCTYPE svg PUBLIC "-//W3C//DTD SVG 1.1//EN" "http://www.w3.org/Graphics/SVG/1.1/DTD/svg11.dtd"><svg class="icon" width="200px" height="200.00px" viewBox="0 0 1024 1024" version="1.1" xmlns="http://www.w3.org/2000/svg"><path   d="M768 73.142857H256C195.291429 73.142857 146.285714 122.148571 146.285714 182.857143v658.285714c0 60.708571 49.005714 109.714286 109.714286 109.714286h512c60.708571 0 109.714286-49.005714 109.714286-109.714286V182.857143c0-60.708571-49.005714-109.714286-109.714286-109.714286zM343.04 379.611429l142.994286-142.994286a36.425143 36.425143 0 0 1 51.565714 0l142.994286 142.994286c10.605714 10.605714 10.605714 28.16 0 38.765714s-28.16 10.605714-38.765715 0l-102.765714-102.765714v308.662857c0 14.994286-12.434286 27.428571-27.428571 27.428571s-27.428571-12.434286-27.428572-27.428571V315.611429l-102.765714 102.765714c-10.605714 10.605714-28.16 10.605714-38.765714 0s-10.24-27.794286 0.365714-38.765714z m324.388571 415.817142h-310.857142c-14.994286 0-27.428571-12.434286-27.428572-27.428571s12.434286-27.428571 27.428572-27.428571h310.857142c14.994286 0 27.428571 12.434286 27.428572 27.428571s-12.434286 27.428571-27.428572 27.428571z" /></svg>