<svg t="1679727075876" class="icon" viewBox="0 0 1024 1024" version="1.1" xmlns="http://www.w3.org/2000/svg" p-id="8788" width="200" height="200"><path d="M52.48 381.44c0 180.992 146.688 327.68 327.68 327.68s327.68-146.688 327.68-327.68S561.152 53.76 380.16 53.76 52.48 200.448 52.48 381.44z m0 0" fill="#FFD200" p-id="8789"></path><path d="M430.464 337.792v37.12h-83.072v30.592h83.072v37.12h-83.072c0 13.056 2.176 26.24 6.528 34.944 4.352 8.704 8.704 17.536 15.232 21.888 6.528 6.528 15.232 8.704 24.064 13.056 8.704 2.176 19.712 4.352 30.592 4.352 8.704 0 15.232 0 24.064-2.176 8.704-2.176 15.232-2.176 21.888-6.528l8.704 59.008c-8.704 2.176-19.712 4.352-30.592 4.352-10.88 2.176-21.888 2.176-32.768 2.176-19.712 0-39.296-2.176-56.832-8.704-17.536-4.352-32.768-13.056-43.648-24.064-13.056-10.88-21.888-24.064-30.592-41.472-6.528-15.232-10.88-34.944-10.88-56.832H231.68v-37.12h41.472v-30.592H231.68v-37.12h41.472c2.176-21.888 6.528-39.296 13.056-56.832 8.704-15.232 17.536-30.592 30.592-41.472s28.416-19.712 45.824-24.064c17.536-6.528 37.12-8.704 56.832-8.704 8.704 0 19.712 0 28.416 2.176 8.704 2.176 19.712 2.176 28.416 6.528l-8.704 59.008c-6.528-2.176-13.056-4.352-21.888-6.528-8.704-2.176-15.232-2.176-24.064-2.176-10.88 0-21.888 2.176-30.592 4.352-8.704 2.176-17.536 6.528-21.888 13.056-6.528 6.528-10.88 13.056-15.232 21.888-4.352 8.704-6.528 19.712-6.528 32.768h83.072z m0 0" fill="#FFFFFF" p-id="8790"></path><path d="M314.624 643.584c0 180.992 146.688 327.68 327.68 327.68s327.68-146.688 327.68-327.68-146.688-327.68-327.68-327.68-327.68 146.688-327.68 327.68z m0 0" fill="#91C52A" p-id="8791"></path><path d="M607.36 578.048c2.176 4.352 4.352 8.704 8.704 13.056 4.352 4.352 8.704 8.704 15.232 10.88 6.528 4.352 15.232 6.528 24.064 10.88 15.232 6.528 30.592 13.056 43.648 19.712 13.056 6.528 24.064 15.232 32.768 24.064 8.704 8.704 17.536 19.712 21.888 30.592 4.352 10.88 8.704 26.24 8.704 41.472 0 15.36-2.176 28.416-6.528 39.296-4.352 10.88-10.88 21.888-19.712 30.592-8.704 8.704-19.712 15.232-30.592 19.712-13.056 4.352-26.24 8.704-39.296 10.88v48h-39.296v-48c-13.056-2.176-26.24-4.352-39.296-8.704s-24.064-10.88-32.768-21.888c-10.88-8.704-17.536-21.888-24.064-34.944-6.528-13.056-8.704-30.592-8.704-50.304h72.064c0 10.88 2.176 21.888 4.352 28.416 2.176 8.704 6.528 13.056 13.056 19.712 4.352 4.352 10.88 8.704 17.536 10.88 6.528 2.176 13.056 2.176 19.712 2.176 8.704 0 15.232 0 19.712-2.176 6.528-2.176 10.88-4.352 15.232-8.704 4.352-4.352 6.528-8.704 8.704-13.056 2.176-4.352 2.176-10.88 2.176-17.536 0-6.528 0-13.056-2.176-17.536-2.176-4.352-4.352-10.88-8.704-15.232-4.352-4.352-8.704-8.704-15.232-10.88-6.528-4.352-15.232-6.528-24.064-10.88-15.232-6.528-30.592-13.056-43.648-19.712-13.056-6.528-24.064-15.232-32.768-24.064-8.704-8.704-17.536-19.712-21.888-30.592-4.352-10.88-8.704-26.24-8.704-41.472 0-13.056 2.176-26.24 6.528-37.12 4.352-10.88 10.88-21.888 19.712-30.592 8.704-8.704 19.712-15.232 30.592-21.888 10.88-4.352 26.24-8.704 39.296-10.88v-52.48h39.296v52.48c13.056 2.176 26.24 6.528 39.296 13.056 10.88 6.528 21.888 13.056 28.416 24.064 8.704 8.704 15.232 21.888 19.712 34.944 4.352 13.056 6.528 28.416 6.528 43.648h-72.064c0-19.712-4.352-34.944-13.056-43.648-8.704-8.704-19.712-15.232-32.768-15.232-6.528 0-13.056 2.176-19.712 4.352-4.352 2.176-8.704 4.352-13.056 8.704-4.352 4.352-6.528 8.704-6.528 13.056-2.176 4.352-2.176 10.88-2.176 17.536-2.304 4.48-0.128 11.008-0.128 15.36z m0 0" fill="#FFFFFF" p-id="8792"></path></svg>