<svg t="1668670731204" class="icon" viewBox="0 0 1024 1024" version="1.1" xmlns="http://www.w3.org/2000/svg" p-id="6672" width="200" height="200"><path d="M709.888 914.1248l-96.2048-96.3072a25.6 25.6 0 0 1 0-36.2496 25.6 25.6 0 0 1 36.1472 0l78.1312 78.2336 189.0816-189.184a25.6 25.6 0 0 1 36.2496 0 25.6 25.6 0 0 1 0 36.1472l-207.2064 207.3088a25.6 25.6 0 0 1-18.1248 7.4752 25.6 25.6 0 0 1-18.0736-7.424zM141.568 512a410.112 410.112 0 0 1 409.6-409.6 410.112 410.112 0 0 1 409.6 409.6 25.6 25.6 0 0 1-25.6 25.6 25.6 25.6 0 0 1-25.6-25.6 358.7584 358.7584 0 0 0-358.4-358.4 358.8608 358.8608 0 0 0-358.4 358.4 358.8608 358.8608 0 0 0 358.4 358.4 25.6 25.6 0 0 1 25.6 25.6 25.6 25.6 0 0 1-25.6 25.6 410.0608 410.0608 0 0 1-409.6-409.6z m380.672 179.2v-35.1744H448.768a25.6 25.6 0 0 1-25.6-25.6 25.6 25.6 0 0 1 25.6-25.6h73.4208v-51.2H448.768a25.6 25.6 0 0 1-25.6-25.6 25.6 25.6 0 0 1 25.6-25.6h56.0128L422.0416 344.7808a25.6 25.6 0 0 1 10.752-34.6624 25.6 25.6 0 0 1 34.6112 10.8544l80.896 154.2656 87.04-154.88a25.6 25.6 0 0 1 34.9184-9.8304 25.6 25.6 0 0 1 9.728 34.816L591.872 502.4256h61.696a25.6 25.6 0 0 1 25.6 25.6 25.6 25.6 0 0 1-25.6 25.6H573.44v51.2h80.128a25.6 25.6 0 0 1 25.6 25.6 25.6 25.6 0 0 1-25.6 25.6H573.44v35.2256a25.6 25.6 0 0 1-25.6 25.6 25.6 25.6 0 0 1-25.6-25.6512z" fill="#9E3200" opacity=".2" p-id="6673"></path><path d="M670.72 914.1248l-96.2048-96.3072a25.6 25.6 0 0 1 0-36.2496 25.6 25.6 0 0 1 36.1472 0l78.1312 78.2336 189.0816-189.184a25.6 25.6 0 0 1 36.2496 0 25.6 25.6 0 0 1 0 36.1472l-207.2064 207.3088a25.6 25.6 0 0 1-18.1248 7.4752 25.6 25.6 0 0 1-18.0736-7.424zM102.4 512a410.112 410.112 0 0 1 409.6-409.6 410.112 410.112 0 0 1 409.6 409.6 25.6 25.6 0 0 1-25.6 25.6 25.6 25.6 0 0 1-25.6-25.6 358.7584 358.7584 0 0 0-358.4-358.4 358.8608 358.8608 0 0 0-358.4 358.4 358.8608 358.8608 0 0 0 358.4 358.4 25.6 25.6 0 0 1 25.6 25.6 25.6 25.6 0 0 1-25.6 25.6 410.0608 410.0608 0 0 1-409.6-409.6z m380.672 179.2v-35.1744H409.6a25.6 25.6 0 0 1-25.6-25.6 25.6 25.6 0 0 1 25.6-25.6h73.4208v-51.2H409.6a25.6 25.6 0 0 1-25.6-25.6 25.6 25.6 0 0 1 25.6-25.6h56.0128L382.8736 344.7808a25.6 25.6 0 0 1 10.752-34.6624 25.6 25.6 0 0 1 34.6112 10.8544l80.896 154.2656 87.04-154.88a25.6 25.6 0 0 1 34.9184-9.8304 25.6 25.6 0 0 1 9.728 34.816l-88.1152 157.0816H614.4a25.6 25.6 0 0 1 25.6 25.6 25.6 25.6 0 0 1-25.6 25.6h-80.128v51.2H614.4a25.6 25.6 0 0 1 25.6 25.6 25.6 25.6 0 0 1-25.6 25.6h-80.128v35.2256a25.6 25.6 0 0 1-25.6 25.6 25.6 25.6 0 0 1-25.6-25.6512z" fill="#9E3200" p-id="6674"></path></svg>