<?xml version="1.0" standalone="no"?><!DOCTYPE svg PUBLIC "-//W3C//DTD SVG 1.1//EN" "http://www.w3.org/Graphics/SVG/1.1/DTD/svg11.dtd"><svg class="icon" width="200px" height="200.00px" viewBox="0 0 1024 1024" version="1.1" xmlns="http://www.w3.org/2000/svg"><path   d="M942.027 317.131L861.44 99.943C852.006 77.492 829.606 64 807.206 64h-261.21v289.075h373.631c17.92 0 26.88-17.972 22.4-35.944zM95.782 353.075h378.112V64H208.256c-23.612 0-44.905 14.44-53.707 36.47L73.434 317.131c-8.96 17.972 4.48 35.944 22.348 35.944zM928.64 418.9c17.92 0 31.36 13.492 31.36 31.464v423.73C960 924.057 919.733 960 869.978 960H149.594C99.84 960 64 919.524 64 874.094v-423.73c0-17.972 13.44-31.463 31.36-31.463zM689.144 560.409c-73.208 0-132.555 59.975-132.555 133.18 0 73.204 59.98 133.18 133.188 133.18 27.7-0.015 54.753-8.371 77.636-23.98l68.78 68.777 30.94-31.57-68.782-68.776c15.76-22.083 23.981-49.225 23.981-77.632 0.633-73.204-59.98-133.18-133.188-133.18zM361.42 603.044H217.163c-13.44 0-22.4 8.96-22.4 22.451v180.718c0 13.492 8.96 22.452 22.4 22.452h144.309v0.474c13.44 0 22.4-8.96 22.4-22.451h-0.053V625.495c0-13.491-8.96-22.45-22.4-22.45z m328.358 1.581c49.227 0 88.967 39.738 88.967 88.962 0 49.225-39.74 88.963-88.967 88.963s-88.968-40.37-88.968-88.963c0-49.224 39.74-88.962 88.968-88.962z" /></svg>