<svg id="图层_1" data-name="图层 1" xmlns="http://www.w3.org/2000/svg" viewBox="0 0 233.99 233.99"><defs><style>.cls-1{fill:#f15a6b;}.cls-2{fill:#fff;}.cls-3{fill:#f9c717;}</style></defs><title>kimigo logo</title><path class="cls-1" d="M175.49,234H58.5A58.67,58.67,0,0,1,0,175.49V58.5A58.67,58.67,0,0,1,58.5,0h117A58.67,58.67,0,0,1,234,58.5v117a58.68,58.68,0,0,1-58.5,58.5"/><path class="cls-2" d="M17,124.1,36.91,81.94a7.34,7.34,0,0,1,4-3.74l7.93-1.86c1.41-.33,2,.88,1.28,2.7l-1.7,4.38c-1.16,3,1.35,3.88,3.82,1.3L61.62,74.4a4.71,4.71,0,0,1,2.26-1.57L71.82,71c2.26-.53,2.46,3,.28,5.59l-12.73,14c-1.27,1.3-2,3.1-1.66,4.34l7.35,24.49c.81,2.3-1.45,5.53-4,5.66l-11.86.58A2,2,0,0,1,47,124.06L43.73,109.5c-.34-1.79-2.59-1.82-4.54-.07a6.15,6.15,0,0,0-1.67,2.32l-4.4,11.4a5.66,5.66,0,0,1-4.48,3.45l-9.95.49c-1.77.08-2.54-1.25-1.72-3"/><path class="cls-2" d="M82.12,73.82l.51-2.52c.51-2.51,2.34-4.88,4.08-5.3l4.93-1.18c1.74-.42,2.85,1.34,2.46,3.93l-.38,2.61c-.38,2.6-2.18,5-4,5.35l-5.2,1c-1.83.35-2.9-1.39-2.39-3.9M82,124l-6.23.31c-2.21.11-3.58-1.83-3.07-4.34l6.48-31.84c.51-2.5,2.45-4.8,4.32-5.13L88.85,82c1.87-.33,3.08,1.51,2.7,4.1l-4.84,32.94c-.38,2.6-2.47,4.79-4.68,4.89"/><path class="cls-2" d="M93.75,121.57l4.67-39.44a2.35,2.35,0,0,1,1.51-2l8.37-1.46c.72-.13,1.24.61,1.16,1.65-.11,1.62,1.16,2.25,2.08,1,2.45-3.3,5.07-5.31,7.92-6,4.12-.74,7.13.8,9.09,4.64.5,1,1.52.88,2.06-.19,2.32-4.7,5.4-7.43,9.3-8.13q11.79-2.47,13.41,19.63l2.26,27c.1,1.15-.51,2.12-1.35,2.16l-11.17.55c-.84,0-1.56-.83-1.61-1.95l-.94-22.28q-.19-10.4-4.73-9.42-4.56.61-4.19,11.09l.27,21.12a1.88,1.88,0,0,1-1.5,2.06l-11.44.57c-.84,0-1.49-.79-1.45-1.85l.72-21.16q.6-10.2-4-8.91-4.56.61-5,10.55l-1.35,20a2,2,0,0,1-1.65,2l-11.17.55c-.84,0-1.42-.74-1.3-1.75"/><path class="cls-2" d="M156.79,58.18l-.36-3.46c-.31-3,.8-5.7,2.48-6.1l5.15-1.24c1.68-.41,3.4,1.74,3.83,4.79l.51,3.55c.44,3.05-.65,5.8-2.42,6.15l-5.42,1.05c-1.77.35-3.46-1.78-3.77-4.74m16.83,61.27-6.5.32c-2.13.11-4.11-2.21-4.42-5.18l-4.12-39.32c-.31-3,.91-5.63,2.72-6l5.54-1c1.81-.32,3.64,1.9,4.07,5l5.78,40.44c.43,3.05-.94,5.61-3.07,5.71"/><path class="cls-3" d="M201.33,110.11A31.84,31.84,0,0,0,160,116.8a31.83,31.83,0,1,0-22,52.06c-4.83,4.7-13.46,5.45-19.94,2.1-5.28-2.73-13.7-10-14.31-15.45l-6.93,13.41a32,32,0,0,0,57.38,1.42l6.34-12.27a31.82,31.82,0,1,0,40.78-48M151.49,143.4a17.14,17.14,0,1,1-7-20.89,17.14,17.14,0,0,1,7,20.89m49,0a17.14,17.14,0,1,1-7-20.89,17.15,17.15,0,0,1,7,20.89"/><path class="cls-2" d="M125.88,189.56A34.16,34.16,0,0,1,95,169.75l-.41-.88,9.69-18.78a33.91,33.91,0,0,1,2.35-30.55A33.83,33.83,0,0,1,160,113.79a33.82,33.82,0,0,1,55.56,36.69A33.58,33.58,0,0,1,195.9,169a34,34,0,0,1-26.91-1.8,33.53,33.53,0,0,1-8-5.7l-5,9.78a33.88,33.88,0,0,1-30.11,18.3M99.07,169a30,30,0,0,0,53.36.47l7.69-14.88,1.93,2.21a29.82,29.82,0,1,0,38.22-44.94,30,30,0,0,0-38.7,6.26L160,119.93l-1.54-1.86a29.83,29.83,0,1,0-20.64,48.79l5.51-.43-4,3.86c-5.33,5.19-14.89,6.25-22.24,2.45-3.87-2-10.52-7-13.68-12.35Zm6.36-16.43.31,2.77c.51,4.5,8.31,11.34,13.25,13.89a17.27,17.27,0,0,0,11.53,1.4,33.82,33.82,0,0,1-25.09-18.06m30.12,3.74a19.12,19.12,0,1,1,6.08-1,19.18,19.18,0,0,1-6.08,1m0-34.26a15.14,15.14,0,1,0,7.89,2.22,15.28,15.28,0,0,0-7.89-2.22m49,34.26a19.14,19.14,0,1,1,6.08-1,18.93,18.93,0,0,1-6.08,1m0-34.26a15.14,15.14,0,1,0,7.9,2.22,15.27,15.27,0,0,0-7.9-2.22"/><path class="cls-2" d="M133.69,139.47a7,7,0,1,1-7-7,7,7,0,0,1,7,7"/><path class="cls-2" d="M183,139.47a7,7,0,1,1-7-7,7,7,0,0,1,7,7"/></svg>