<svg t="1665487308054" class="icon" viewBox="0 0 1024 1024" version="1.1" xmlns="http://www.w3.org/2000/svg" p-id="3107" width="200" height="200"><path d="M736 92v476c0 123.71-100.29 224-224 224S288 691.71 288 568V92c0-15.46-12.54-28-28-28H148c-15.46 0-28 12.54-28 28v476c0 216.5 175.5 392 392 392s392-175.5 392-392V92c0-15.46-12.54-28-28-28H764c-15.46 0-28 12.54-28 28z" fill="#8C9EFF" p-id="3108"></path><path d="M288 232H120V92c0-15.46 12.54-28 28-28h112c15.46 0 28 12.54 28 28v140z" fill="#FFD600" p-id="3109"></path><path d="M904 232H736V92c0-15.46 12.54-28 28-28h112c15.46 0 28 12.54 28 28v140z" fill="#313FA0" p-id="3110"></path><path d="M120 232h168v28H120zM736 232h168v28H736z" fill="#E1F5FF" p-id="3111"></path></svg>