<?xml version="1.0" standalone="no"?><!DOCTYPE svg PUBLIC "-//W3C//DTD SVG 1.1//EN" "http://www.w3.org/Graphics/SVG/1.1/DTD/svg11.dtd"><svg class="icon" width="200px" height="200.00px" viewBox="0 0 1024 1024" version="1.1" xmlns="http://www.w3.org/2000/svg"><path   d="M904.001 456.001c30.928 0 55.999 25.072 55.999 56v379.076C960 929.145 929.145 960 891.078 960h-758.14c-38.063 0-68.922-30.855-68.922-68.923V512.001c0-30.928 25.071-56 55.999-56H904z m-440.219 98.415c-0.347 0-0.694 0.001-1.04 0.005l-0.555-0.005c-14.407 0-28.16 2.742-40.953 7.518-4.664 1.755-8.216 4.928-10.495 8.778-7.125 9.68-6.982 23.938 2.422 33.425l43.773 44.359-21.081 21.406-43.844-44.415-0.304-0.303c-9.286-9.107-22.93-9.11-32.298-2.022-3.863 2.354-7.058 6.07-8.814 10.99l-2.968 9.604c-2.68 10.088-4.134 20.682-4.064 31.653-0.07 11.126 1.405 22.38 4.51 33.645 12.61 45.557 51.193 80.394 97.147 87.414l10.185 1.124 1.097 0.071c13.152 0.792 26.08-0.545 38.455-3.905l6.038-1.92 80.489 81.527 0.476 0.477c11.643 11.527 26.92 17.041 42.04 16.543 14.347 0.486 28.85-4.821 39.81-15.923 10.95-11.091 16.191-25.766 15.721-40.287 0.49-15.475-5.1-31.11-16.775-42.935l-82.729-83.754-0.27-0.27c-7.81-7.623-20.268-7.659-28.144-0.028-8.128 8-8.27 21.064-0.296 29.14l82.77 83.84 0.26 0.269c6.316 6.684 6.23 17.383-0.26 23.957-6.606 6.691-17.304 6.631-23.855-0.133l-83.486-86.32-0.248-0.304c-7.033-8.462-19.314-11.028-29.945-6.266a80.242 80.242 0 0 1-23.795 6.537c-30.811 3.455-61.102-13.641-78.906-43.164l-4.07-7.518-0.364-0.77c-4.539-9.74-6.691-19.43-6.799-29.469l0.18-4.917 35.048 35.501 0.3 0.299c9.959 9.765 25.88 9.665 35.72-0.3l40.392-40.915 3.248-4.026 0.223-0.349c6.246-9.925 5.09-23.237-3.461-31.946l-35.816-36.194 5.331-0.254 1.205 0.009c39.688 0.593 73.165 30.45 78.992 70.041 1.4 9.573 9.583 16.657 19.22 16.657 11.955 0 21.216-10.71 19.474-22.597-8.758-59.2-59.165-103.58-118.891-103.58zM751.439 64.001a68.829 68.829 0 0 1 56.036 28.864L959.018 344c0.066 0 0.124 0.28 0.174 0.837v0.519c2.466 27.603-23.707 51.98-51.311 54.446a50.359 50.359 0 0 1-4.465 0.2H595.198c-30.927 0-56-25.074-56-56.002V120c0-30.927 25.073-55.999 56-55.999h156.24zM428.155 64c30.927 0 55.999 25.072 55.999 56v224c0 30.928-25.072 56-56 56H119.939c-1.49 0-2.98-0.066-4.465-0.199-27.604-2.466-53.778-26.843-51.311-54.446v-0.519c0.048-0.557 0.107-0.837 0.173-0.837L215.878 92.864A68.829 68.829 0 0 1 271.914 64h156.24z" /></svg>