<svg t="1689320861303" class="icon" viewBox="0 0 1024 1024" version="1.1" xmlns="http://www.w3.org/2000/svg" p-id="5071" ><path d="M512 84.29899c-235.830303 0-427.70101 191.870707-427.70101 427.70101s191.870707 427.70101 427.70101 427.70101 427.70101-191.870707 427.70101-427.70101-191.870707-427.70101-427.70101-427.70101z m0 800.064646c-205.317172 0-371.846465-167.046465-371.846465-372.363636s167.046465-371.846465 371.846465-371.846465c205.317172 0 372.363636 167.046465 372.363636 371.846465 0 205.317172-167.046465 372.363636-372.363636 372.363636z" fill="#13227a" p-id="5072"></path><path d="M853.136808 265.210828l-633.359515 516.266667-35.286626-43.297616 633.354343-516.261495z" fill="#13227a" p-id="5073"></path><path d="M293.753535 547.167677v-60.509091c25.858586-19.652525 39.822222-62.060606 42.408081-127.741414h-41.373737v-44.99394h171.183838v44.99394H382.707071c-3.10303 28.961616-6.723232 53.785859-10.343435 74.989899h54.303031c10.860606 0 20.169697 3.620202 27.927272 11.377777 8.274747 8.274747 12.412121 19.135354 12.412122 32.064647V677.494949c0 12.412121-3.620202 22.755556-10.860606 31.030304-7.757576 8.791919-18.10101 13.446465-30.513132 13.446464h-67.232323c-10.860606 0-20.686869-4.137374-28.444444-12.412121-8.274747-8.274747-12.412121-18.10101-12.412122-30.513131V532.686869c-8.274747 5.688889-15.515152 10.343434-23.789899 14.480808z m127.224243 113.777778v-166.012122c0-5.171717-1.551515-9.309091-5.171717-12.929293-2.585859-2.585859-5.688889-3.620202-9.826263-3.620202h-29.478788c-9.826263 0-14.480808 6.206061-14.480808 19.135354v164.977778c0 9.826263 4.137374 14.480808 12.929293 14.480808h33.09899c4.654545 0 8.274747-2.068687 10.343434-6.206061 1.551515-3.10303 2.585859-6.206061 2.585859-9.826262z m56.888889 61.543434v-47.579798c6.723232-2.585859 11.377778-5.688889 14.997979-9.826263 4.654545-5.688889 7.240404-14.99798 7.240405-26.892929v-253.414141c0-14.99798 5.171717-27.410101 14.997979-37.236364 9.826263-9.826263 21.20404-14.480808 34.133334-14.480808h57.923232v-29.478788h46.545455v29.478788h49.648484c11.894949 0 22.238384 3.620202 29.99596 10.343434 9.826263 8.274747 14.480808 20.169697 14.480808 35.167677v42.925252h-45.511111V393.050505c0-4.137374-1.551515-7.757576-4.137374-10.860606-2.068687-2.068687-5.171717-3.620202-8.791919-3.620202h-36.20202v80.678788h60.509091c10.860606 0 18.618182 3.10303 23.789899 9.309091 4.137374 4.654545 5.688889 10.860606 5.688889 19.135353 0 11.894949-3.620202 27.927273-10.860606 47.579798-9.826263 26.375758-27.410101 56.371717-52.234344 89.987879 24.824242 24.824242 47.579798 41.373737 67.232323 49.131313v47.579798c-26.375758-10.343434-48.614141-22.238384-66.197979-36.20202-9.309091-7.240404-19.652525-16.549495-30.513132-27.410101-31.547475 30.513131-64.646465 52.234343-99.296969 63.612121v-47.579798c22.755556-8.791919 46.028283-25.858586 69.818181-50.165656-22.238384-27.927273-43.959596-62.577778-65.163636-104.468687h51.717172c15.515152 29.478788 29.99596 53.785859 43.442424 71.886868 22.755556-31.547475 37.753535-61.026263 44.476768-88.953535h-151.531314v136.533333c0 25.341414-8.274747 45.511111-24.824242 61.543435-8.791919 9.826263-23.272727 17.066667-41.373737 21.721212z m67.232323-262.723232h61.543434v-80.678788h-37.753535c-6.723232 0-12.412121 2.585859-17.583838 7.757575-4.137374 4.137374-6.206061 10.343434-6.206061 19.135354v53.785859z" fill="#13227a" p-id="5074"></path></svg>