<?xml version="1.0" standalone="no"?><!DOCTYPE svg PUBLIC "-//W3C//DTD SVG 1.1//EN" "http://www.w3.org/Graphics/SVG/1.1/DTD/svg11.dtd"><svg class="icon" width="200px" height="200.00px" viewBox="0 0 1024 1024" version="1.1" xmlns="http://www.w3.org/2000/svg"><path   d="M545.512 78.164c21.837-18.885 53.78-18.885 75.616 0L883.29 262.62l0.243 0.2C896.529 274.25 904 290.802 904 308.297v509.028c0 32.956-26.24 59.795-58.495 59.795h-40.834c0.434-2.928 0.659-5.925 0.659-8.975V359.118c0-17.495-7.471-34.048-20.469-45.479l-0.242-0.2-262.161-184.455c-8.754-7.57-19.133-12.107-29.833-13.608zM740.89 345.698l-0.242-0.2-262.161-184.455c-21.837-18.886-53.78-18.886-75.617 0L140.71 345.498l-0.242 0.2C127.471 357.03 120 373.582 120 391.178v509.027C120 933.16 146.24 960 178.495 960h524.368c32.255 0 58.495-26.84 58.495-59.795V391.177c0-17.495-7.47-34.048-20.468-45.479zM567.637 545.712c17.897 0 32.399 13.591 32.399 30.268 0 16.733-14.502 30.38-32.4 30.38h-94.58v57.995h94.58c8.633 0 16.783 3.088 22.943 8.827 6.063 5.74 9.458 13.375 9.458 21.444 0 16.677-14.502 30.269-32.4 30.269h-94.58v48.79c0 16.677-14.503 30.27-32.401 30.27-17.85 0-32.4-13.593-32.4-30.27v-48.79h-94.533c-17.898 0-32.45-13.592-32.45-30.27 0-16.731 14.552-30.269 32.45-30.269h94.533v-57.995h-94.533c-17.898 0-32.45-13.647-32.45-30.38 0.05-16.677 14.6-30.268 32.4-30.268h80.467L290.83 449.217c-11.253-11.696-11.157-29.026-0.097-40.614 6.208-6.39 14.987-10.018 24.251-10.018 8.004 0 15.764 2.708 21.68 7.69l104.04 97.2 103.991-97.2c6.015-5.687 14.406-8.882 22.991-8.882 8.73 0 16.88 3.141 23.038 8.882 6.064 5.74 9.41 13.375 9.41 21.444 0 8.013-3.493 15.865-9.555 21.498l-103.36 96.496 80.419-0.001z" /></svg>