<svg xmlns="http://www.w3.org/2000/svg" xmlns:xlink="http://www.w3.org/1999/xlink" fill="none" version="1.1" width="84" height="34" viewBox="0 0 84 34"><defs><clipPath id="master_svg0_1_176061"><rect x="16" y="7" width="20" height="20" rx="0"/></clipPath></defs><g><g><rect x="0" y="0" width="84" height="34" rx="3" fill="#F5F7FA" fill-opacity="1"/></g><g clip-path="url(#master_svg0_1_176061)"><g><path d="M25.8769525,19.910159999999998C25.8915725,19.928829999999998,25.9102425,19.94393,25.9315625,19.95432C25.9528825,19.96471,25.9762825,19.97011,26.0000025,19.97011C26.023712500000002,19.97011,26.0471225,19.96471,26.0684425,19.95432C26.0897525,19.94393,26.1084325,19.928829999999998,26.1230425,19.910159999999998C26.1230425,19.910159999999998,28.3105425,17.14258,28.3105425,17.14258C28.3906225,17.04101,28.3183625,16.89062,28.1875025,16.89062C28.1875025,16.89062,26.740232499999998,16.89062,26.740232499999998,16.89062C26.740232499999998,16.89062,26.740232499999998,10.28125,26.740232499999998,10.28125C26.740232499999998,10.1953125,26.6699225,10.125,26.5839825,10.125C26.5839825,10.125,25.4121125,10.125,25.4121125,10.125C25.3261725,10.125,25.2558625,10.1953125,25.2558625,10.28125C25.2558625,10.28125,25.2558625,16.88867,25.2558625,16.88867C25.2558625,16.88867,23.8125025,16.88867,23.8125025,16.88867C23.6816425,16.88867,23.6093725,17.03906,23.6894525,17.14062C23.6894525,17.14062,25.8769525,19.910159999999998,25.8769525,19.910159999999998ZM33.1484125,19.22656C33.1484125,19.22656,31.9765125,19.22656,31.9765125,19.22656C31.8906125,19.22656,31.8203125,19.29688,31.8203125,19.38281C31.8203125,19.38281,31.8203125,22.3906,31.8203125,22.3906C31.8203125,22.3906,20.1796925,22.3906,20.1796925,22.3906C20.1796925,22.3906,20.1796925,19.38281,20.1796925,19.38281C20.1796925,19.29688,20.1093725,19.22656,20.0234325,19.22656C20.0234325,19.22656,18.8515625,19.22656,18.8515625,19.22656C18.765625,19.22656,18.6953125,19.29688,18.6953125,19.38281C18.6953125,19.38281,18.6953125,23.25,18.6953125,23.25C18.6953125,23.5957,18.9746095,23.875,19.3203125,23.875C19.3203125,23.875,32.6797125,23.875,32.6797125,23.875C33.0254125,23.875,33.3047125,23.5957,33.3047125,23.25C33.3047125,23.25,33.3047125,19.38281,33.3047125,19.38281C33.3047125,19.29688,33.2344125,19.22656,33.1484125,19.22656Z" fill="#333333" fill-opacity="1"/></g></g><g><path d="M40.686,18.317999999999998L40.686,19.298000000000002L49.212,19.298000000000002L49.212,22.014C49.212,22.35,49.002,22.518,48.596000000000004,22.518C48.064,22.518,47.518,22.49,46.93,22.448L47.153999999999996,23.442L48.946,23.442C49.786,23.442,50.22,23.05,50.22,22.266L50.22,19.298000000000002L53.3,19.298000000000002L53.3,18.317999999999998L50.22,18.317999999999998L50.22,17.436L49.212,17.436L49.212,18.317999999999998L40.686,18.317999999999998ZM51.186,11.108L42.156,11.108L42.156,15.812C42.156,16.567999999999998,42.562,16.96,43.402,16.96L51.55,16.96C52.138,16.932000000000002,52.53,16.722,52.726,16.302C52.838,16.022,52.936,15.574,53.006,14.944L52.054,14.636C51.998,15.224,51.914,15.588,51.83,15.742C51.718,15.91,51.536,16.008,51.256,16.022L43.766,16.022C43.374,16.022,43.164,15.826,43.164,15.448L43.164,14.44L51.186,14.44L51.186,11.108ZM43.164,13.516L43.164,12.018L50.178,12.018L50.178,13.516L43.164,13.516ZM43.906,19.718L43.192,20.404C44.172,21.201999999999998,44.956,21.958,45.516,22.672L46.272,21.916C45.628,21.188000000000002,44.844,20.445999999999998,43.906,19.718ZM64.794,15.434L61.518,15.434L61.518,10.548L60.482,10.548L60.482,15.434L57.206,15.434L57.206,11.612L56.198,11.612L56.198,16.414L60.482,16.414L60.482,21.552L56.534,21.552L56.534,17.73L55.512,17.73L55.512,23.302L56.534,23.302L56.534,22.518L65.46600000000001,22.518L65.46600000000001,23.302L66.488,23.302L66.488,17.73L65.46600000000001,17.73L65.46600000000001,21.552L61.518,21.552L61.518,16.414L65.80199999999999,16.414L65.80199999999999,11.612L64.794,11.612L64.794,15.434Z" fill="#333333" fill-opacity="1"/></g></g></svg>