<?xml version="1.0" standalone="no"?><!DOCTYPE svg PUBLIC "-//W3C//DTD SVG 1.1//EN" "http://www.w3.org/Graphics/SVG/1.1/DTD/svg11.dtd"><svg class="icon" width="200px" height="200.00px" viewBox="0 0 1024 1024" version="1.1" xmlns="http://www.w3.org/2000/svg"><path   d="M483.208 64c4.063 0 7.266 1.017 9.873 3.076l1.864 1.729a30.111 30.111 0 0 1 4.519 6.315l1.62 3.58c3.795 8.963 9.338 16.905 16.233 23.36l4.307 3.706c8.333 6.721 18.305 10.692 28.67 11.526l5.214 0.164a60.26 60.26 0 0 0 30.924-8.027l4.637-2.908c8.393-5.784 15.105-13.829 19.515-23.257l2.01-4.848a41.594 41.594 0 0 1 4.514-6.516l2.668-2.912a14.413 14.413 0 0 1 10.16-4.704c5.336 0 11.206 0.755 17.341 2.158 4.27 1.081 8.412 2.242 12.517 3.687l6.158 2.443a77.146 77.146 0 0 1 11.531 6.291l5.336 3.893a57.708 57.708 0 0 1 8.6 8.594l3.588 4.988c1.4 2.18 2.053 4.744 1.973 7.33l-0.371 2.565-0.981 3.97-1.42 3.85c-10.422 22.545-5.541 49.69 12.007 66.548 7.796 7.742 17.115 12.608 28.195 14.356l5.683 0.615a74.498 74.498 0 0 0 31.156-4.014l5.95-2.381a18.361 18.361 0 0 1 11.184-2.447c4.264 0.29 8.004 2.158 11.202 5.094 5.603 5.355 10.672 13.377 15.208 24.028a136.76 136.76 0 0 1 8.883 32.62c0.578 5.193 0 9.43-1.743 12.748l-1.54 2.32a26.215 26.215 0 0 1-5.538 5.235l-3.265 1.934c-9.849 3.585-18.778 9.453-26.162 17.13l-4.25 4.824c-7.182 8.756-11.493 19.715-12.311 31.218l-0.126 4.847H657.15l-0.085-4.419c-2.86-53.58-48.102-95.212-102.159-94.014-54.057 1.203-97.378 44.8-97.824 98.452l-110.031-0.02 0.123-1.547a49.9 49.9 0 0 0-10.489-31.297l-3.118-3.584a84.11 84.11 0 0 0-25.2-19.123l-5.744-2.565a14.898 14.898 0 0 1-7.388-6.007l-1.15-2.181a24.712 24.712 0 0 1-3.533-9.854l-0.202-3.547a99.287 99.287 0 0 1 5.847-27.671l2.668-6.516a88.21 88.21 0 0 1 5.355-10.59l3.203-4.992a30.214 30.214 0 0 1 7.553-8.304l3.118-2.037a12.483 12.483 0 0 1 6.483-2.28l2.32 0.098c2.113 0.247 4.209 0.652 6.261 1.226l3.076 0.932c9.503 3.729 19.596 5.379 29.695 4.829l6.035-0.592a56.914 56.914 0 0 0 28.787-12.645l4.026-3.663c3.486-3.464 6.317-7.616 8.37-12.161l1.766-4.684c3.983-11.909 5.335-24.619 4.002-37.161l-1.334-11.485-0.719-2.32-1.414-5.705a13.473 13.473 0 0 1 0-5.417l0.818-2.587c2.198-4.641 5.36-8.654 9.235-11.786l3.019-2.163a109.91 109.91 0 0 1 12.62-6.861l6.586-2.75a127.16 127.16 0 0 1 13.26-4.274l6.768-1.57A79.235 79.235 0 0 1 483.208 64zM181.955 267.638c13.442 0 25.015 7.005 27.646 16.737l23.7 87.4h698.442c15.594-0.017 28.238 9.308 28.257 20.793 0 1.528-0.225 3.053-0.676 4.54L864.516 707.94c-5.744 19.04-28.647 32.603-55.1 32.603H307.608c-26.534 0-49.497-13.648-55.138-32.79L138.78 329.95a75.719 75.719 0 0 1-4.227 0.144h-28.22c-23.39 0-42.333-13.992-42.333-31.242 0-17.245 18.943-31.214 42.334-31.214h75.621zM375.005 960c-30.246 0.008-58.195-16.002-73.322-41.996a83.47 83.47 0 0 1 0-84.007C316.81 808.002 344.759 792 375.006 792c46.746 0.007 84.635 37.612 84.635 84 0 46.387-37.889 83.993-84.635 84z m366.82 0c-30.247 0.008-58.196-16.002-73.323-41.996a83.47 83.47 0 0 1 0-84.007C683.63 808.002 711.578 792 741.825 792c46.747 0.007 84.635 37.612 84.635 84 0 46.387-37.888 83.993-84.635 84z" /></svg>