<?xml version="1.0" standalone="no"?><!DOCTYPE svg PUBLIC "-//W3C//DTD SVG 1.1//EN" "http://www.w3.org/Graphics/SVG/1.1/DTD/svg11.dtd"><svg class="icon" width="200px" height="200.00px" viewBox="0 0 1024 1024" version="1.1" xmlns="http://www.w3.org/2000/svg"><path   d="M492.778 566.585c16.738 46.931 58.12 79.706 106.229 79.706h5.26c-17.754 30.315-28.36 64.554-30.952 99.927C566.887 833.58 609.758 916.926 683.271 960H185.138c-22.009 0-46.377-30.051-46.377-54.633V640.832a103.706 103.706 0 0 0 32.958 5.46c48.318-0.722 91.123-32.49 107.387-79.707 16.793 46.931 58.12 79.706 106.285 79.706 48.318-0.72 91.123-32.489 107.387-79.706z m350.2-361.656l75.65 214.274c0.488 44.825-23.594 86.046-62.12 106.313-33.496-11.304-69.131-14.022-103.86-7.92-30.867-22.458-49.145-59.213-48.902-98.336 0 65.55-47.325 117.402-106.174 117.402-58.848 0-106.23-53.214-106.23-117.402 0 65.55-48.593 117.402-107.441 117.402-58.849 0-106.23-53.214-106.23-117.402 0 65.561-48.847 117.402-107.442 117.402C111.634 536.662 64 483.448 64 419.26l73.282-214.331h705.696zM796.755 64c21.06 0 36.85 17.76 36.85 40.969 0 23.208-16.11 40.969-36.85 40.969H186.129c-20.795 0-36.85-17.761-36.85-40.97 0-23.207 15.79-40.968 36.85-40.968zM825.105 581.988c4.275-0.04 7.918 3.208 8.524 7.6l6.792 48.223a126.497 126.497 0 0 1 29.529 17.761l43.477-18.138c3.98-1.463 8.398 0.213 10.53 3.993l34.9 62.724c2.116 3.876 1.226 8.772-2.106 11.581l-36.851 29.88a131.15 131.15 0 0 1 0 35.51l36.586 30.051c3.34 2.827 4.234 7.748 2.106 11.639l-34.899 62.666c-2.04 3.902-6.55 5.607-10.53 3.994l-43.478-18.139a131.329 131.329 0 0 1-29.529 17.761l-6.638 48.018c-0.562 4.418-4.234 7.69-8.523 7.601h-70.109c-4.167-0.064-7.695-3.283-8.267-7.6l-6.638-48.019a125.93 125.93 0 0 1-29.474-17.76l-43.478 18.138c-3.979 1.507-8.425-0.18-10.53-3.994l-34.954-62.666c-2.126-3.894-1.236-8.811 2.106-11.639l36.85-29.88a131.15 131.15 0 0 1 0-35.51l-36.85-29.88c-3.418-2.755-4.321-7.722-2.106-11.58l35.053-63.101c2.062-3.88 6.55-5.585 10.53-3.994l43.49 18.138a133.181 133.181 0 0 1 29.473-17.76l6.638-48.019c0.602-4.394 4.248-7.644 8.523-7.6zM790.096 699.94c-33.752 0.023-61.098 28.449-61.065 63.478 0.022 35.03 27.412 63.41 61.164 63.376 33.708-0.091 61.01-28.438 61.065-63.421v-0.058c-0.022-35.03-27.412-63.41-61.164-63.375z" /></svg>