<svg xmlns="http://www.w3.org/2000/svg" xmlns:xlink="http://www.w3.org/1999/xlink" fill="none" version="1.1" width="16" height="16" viewBox="0 0 16 16"><defs><clipPath id="master_svg0_1_225655"><rect x="0" y="0" width="16" height="16" rx="0"/></clipPath></defs><g clip-path="url(#master_svg0_1_225655)"><g><path d="M10.710658046875,5.2894287529296875Q9.587898046875,4.1666717529296875,8.000078046875,4.1666717529296875Q6.4122580468749995,4.1666717529296875,5.289505046875,5.2894287529296875Q4.166748046875,6.412181752929687,4.166748046875,8.000001752929688Q4.166748046875,9.587821752929688,5.289505046875,10.710581752929688Q6.4122580468749995,11.833341752929687,8.000078046875,11.833341752929687Q9.587898046875,11.833341752929687,10.710658046875,10.710581752929688Q11.833418046875,9.587821752929688,11.833418046875,8.000001752929688Q11.833418046875,6.4121917529296875,10.710658046875,5.2894287529296875ZM5.996608046875,5.9965317529296875Q6.826478046875,5.1666717529296875,8.000078046875,5.1666717529296875Q9.173688046875,5.1666717529296875,10.003548046875,5.9965317529296875Q10.833418046875,6.826401752929687,10.833418046875,8.000001752929688Q10.833418046875,9.173611752929688,10.003548046875,10.003471752929688Q9.173688046875,10.833341752929687,8.000078046875,10.833341752929687Q6.826478046875,10.833341752929687,5.996608046875,10.003471752929688Q5.166748046875,9.173611752929688,5.166748046875,8.000001752929688Q5.166748046875,6.826401752929687,5.996608046875,5.9965317529296875Z" fill-rule="evenodd" fill="#000000" fill-opacity="1"/></g><g><path d="M7.5,0.6666717529296875L7.5,2.0000017529296876Q7.5,2.0492517529296874,7.509607,2.0975517529296877Q7.519215,2.1458517529296874,7.53806,2.1913517529296875Q7.556906,2.2368417529296876,7.584265,2.2777917529296876Q7.611625,2.3187317529296876,7.646447,2.3535617529296875Q7.681269,2.3883817529296874,7.722215,2.415741752929687Q7.763161,2.4431017529296875,7.808658,2.4619417529296874Q7.854155,2.4807917529296875,7.9024549,2.490401752929688Q7.9507543,2.5000017529296876,8,2.5000017529296876Q8.0492457,2.5000017529296876,8.0975451,2.490401752929688Q8.145845,2.4807917529296875,8.191342,2.4619417529296874Q8.236839,2.4431017529296875,8.277785,2.415741752929687Q8.318731,2.3883817529296874,8.353553,2.3535617529296875Q8.388375,2.3187317529296876,8.415735,2.2777917529296876Q8.443094,2.2368417529296876,8.46194,2.1913517529296875Q8.480785000000001,2.1458517529296874,8.490393,2.0975517529296877Q8.5,2.0492517529296874,8.5,2.0000017529296876L8.5,0.6666717529296875Q8.5,0.6174260529296876,8.490393,0.5691266529296874Q8.480785000000001,0.5208267529296875,8.46194,0.4753297529296875Q8.443094,0.4298327529296875,8.415735,0.3888867529296875Q8.388375,0.3479407529296875,8.353553,0.3131187529296875Q8.318731,0.2782967529296875,8.277785,0.2509367529296875Q8.236839,0.2235777529296875,8.191342,0.20473175292968748Q8.145845,0.18588675292968748,8.0975451,0.17627875292968748Q8.0492457,0.1666717529296875,8,0.1666717529296875Q7.9507543,0.1666717529296875,7.9024549,0.17627875292968748Q7.854155,0.18588675292968748,7.808658,0.20473175292968748Q7.763161,0.2235777529296875,7.722215,0.2509367529296875Q7.681269,0.2782967529296875,7.646447,0.3131187529296875Q7.611625,0.3479407529296875,7.584265,0.3888867529296875Q7.556906,0.4298327529296875,7.53806,0.4753297529296875Q7.519215,0.5208267529296875,7.509607,0.5691266529296874Q7.5,0.6174260529296876,7.5,0.6666717529296875Z" fill-rule="evenodd" fill="#000000" fill-opacity="1"/></g><g><path d="M7.5,14L7.5,15.33333Q7.5,15.38258,7.509607,15.43088Q7.519215,15.47918,7.53806,15.52468Q7.556906,15.570170000000001,7.584265,15.61112Q7.611625,15.65206,7.646447,15.68689Q7.681269,15.72171,7.722215,15.74907Q7.763161,15.77643,7.808658,15.79527Q7.854155,15.814119999999999,7.9024549,15.82373Q7.9507543,15.83333,8,15.83333Q8.0492457,15.83333,8.0975451,15.82373Q8.145845,15.814119999999999,8.191342,15.79527Q8.236839,15.77643,8.277785,15.74907Q8.318731,15.72171,8.353553,15.68689Q8.388375,15.65206,8.415735,15.61112Q8.443094,15.570170000000001,8.46194,15.52468Q8.480785000000001,15.47918,8.490393,15.43088Q8.5,15.38258,8.5,15.33333L8.5,14Q8.5,13.9507543,8.490393,13.9024549Q8.480785000000001,13.854155,8.46194,13.808658Q8.443094,13.763161,8.415735,13.722215Q8.388375,13.681269,8.353553,13.646447Q8.318731,13.611625,8.277785,13.584265Q8.236839,13.556906,8.191342,13.53806Q8.145845,13.519214999999999,8.0975451,13.509607Q8.0492457,13.5,8,13.5Q7.9507543,13.5,7.9024549,13.509607Q7.854155,13.519214999999999,7.808658,13.53806Q7.763161,13.556906,7.722215,13.584265Q7.681269,13.611625,7.646447,13.646447Q7.611625,13.681269,7.584265,13.722215Q7.556906,13.763161,7.53806,13.808658Q7.519215,13.854155,7.509607,13.9024549Q7.5,13.9507543,7.5,14Z" fill-rule="evenodd" fill="#000000" fill-opacity="1"/></g><g><path d="M2.459738421875,3.1669522333984377L3.406345421875,4.113559233398437Q3.476671421875,4.183889233398437,3.568557421875,4.221949233398437Q3.660443421875,4.260009233398438,3.759899421875,4.260009233398438Q3.859352421875,4.260009233398438,3.951242421875,4.221949233398437Q4.043122421875,4.183889233398437,4.1134524218749995,4.113559233398437Q4.183782421875,4.043229233398438,4.2218424218749995,3.9513492333984375Q4.259902421875,3.8594592333984377,4.259902421875,3.7600062333984376Q4.259902421875,3.6605502333984377,4.2218424218749995,3.5686642333984375Q4.183782421875,3.4767782333984374,4.1134524218749995,3.4064522333984373L3.166845421875,2.4598452333984375L3.166785421875,2.4597862333984377Q3.096459421875,2.3894592333984375,3.004574421875,2.3513992333984373Q2.912688621875,2.3133392333984375,2.813232421875,2.3133392333984375Q2.713776221875,2.3133392333984375,2.621890421875,2.3513992333984373Q2.530005421875,2.3894592333984375,2.459679421875,2.4597862333984377Q2.389352421875,2.5301122333984374,2.3512924218749998,2.6219972333984374Q2.313232421875,2.7138830333984374,2.313232421875,2.8133392333984375Q2.313232421875,2.9127954333984376,2.3512924218749998,3.0046812333984376Q2.389352421875,3.0965662333984376,2.459679421875,3.1668922333984373L2.459738421875,3.1669522333984377Z" fill-rule="evenodd" fill="#000000" fill-opacity="1"/></g><g><path d="M11.886496234375,12.59361086376953L12.833103234375,13.54021786376953Q12.903429234375,13.610547863769531,12.995315234375,13.64860786376953Q13.087201234375,13.68666786376953,13.186657234375,13.68666786376953Q13.286110234375,13.68666786376953,13.378000234375,13.64860786376953Q13.469880234375,13.610547863769531,13.540210234375,13.54021786376953Q13.610540234375,13.46988786376953,13.648600234375,13.37800786376953Q13.686660234375,13.286117863769531,13.686660234375,13.186664863769531Q13.686660234375,13.087208863769531,13.648600234375,12.99532286376953Q13.610540234375,12.903436863769532,13.540210234375,12.833110863769532L12.593603234375,11.886503863769532L12.593543234375,11.886444863769531Q12.523217234375,11.81611786376953,12.431332234375,11.778057863769531Q12.339446434375,11.739997863769531,12.239990234375,11.739997863769531Q12.140534034375,11.739997863769531,12.048648234375,11.778057863769531Q11.956763234375,11.81611786376953,11.886437234375,11.886444863769531Q11.816110234375,11.956770863769531,11.778050234375,12.04865586376953Q11.739990234375,12.14054166376953,11.739990234375,12.239997863769531Q11.739990234375,12.339454063769532,11.778050234375,12.431339863769532Q11.816110234375,12.523224863769531,11.886437234375,12.593550863769531L11.886496234375,12.59361086376953Z" fill-rule="evenodd" fill="#000000" fill-opacity="1"/></g><g><path d="M0.666748046875,8.5L2.000078046875,8.5Q2.049328046875,8.5,2.097628046875,8.490393Q2.145928046875,8.480785000000001,2.191428046875,8.46194Q2.236918046875,8.443094,2.277868046875,8.415735Q2.318808046875,8.388375,2.353638046875,8.353553Q2.388458046875,8.318731,2.4158180468749997,8.277785Q2.443178046875,8.236839,2.462018046875,8.191342Q2.480868046875,8.145845,2.4904780468750003,8.0975451Q2.500078046875,8.0492457,2.500078046875,8Q2.500078046875,7.9507543,2.4904780468750003,7.9024549Q2.480868046875,7.854155,2.462018046875,7.808658Q2.443178046875,7.763161,2.4158180468749997,7.722215Q2.388458046875,7.681269,2.353638046875,7.646447Q2.318808046875,7.611625,2.277868046875,7.584265Q2.236918046875,7.556906,2.191428046875,7.53806Q2.145928046875,7.519215,2.097628046875,7.509607Q2.049328046875,7.5,2.000078046875,7.5L0.666748046875,7.5Q0.617502346875,7.5,0.569202946875,7.509607Q0.520903046875,7.519215,0.475406046875,7.53806Q0.429909046875,7.556906,0.388963046875,7.584265Q0.348017046875,7.611625,0.313195046875,7.646447Q0.278373046875,7.681269,0.251013046875,7.722215Q0.223654046875,7.763161,0.20480804687499998,7.808658Q0.18596304687499998,7.854155,0.17635504687499998,7.9024549Q0.166748046875,7.9507543,0.166748046875,8Q0.166748046875,8.0492457,0.17635504687499998,8.0975451Q0.18596304687499998,8.145845,0.20480804687499998,8.191342Q0.223654046875,8.236839,0.251013046875,8.277785Q0.278373046875,8.318731,0.313195046875,8.353553Q0.348017046875,8.388375,0.388963046875,8.415735Q0.429909046875,8.443094,0.475406046875,8.46194Q0.520903046875,8.480785000000001,0.569202946875,8.490393Q0.617502346875,8.5,0.666748046875,8.5Z" fill-rule="evenodd" fill="#000000" fill-opacity="1"/></g><g><path d="M14,8.5L15.33333,8.5Q15.38258,8.5,15.43088,8.490393Q15.47918,8.480785000000001,15.52468,8.46194Q15.570170000000001,8.443094,15.61112,8.415735Q15.65206,8.388375,15.68689,8.353553Q15.72171,8.318731,15.74907,8.277785Q15.77643,8.236839,15.79527,8.191342Q15.814119999999999,8.145845,15.82373,8.0975451Q15.83333,8.0492457,15.83333,8Q15.83333,7.9507543,15.82373,7.9024549Q15.814119999999999,7.854155,15.79527,7.808658Q15.77643,7.763161,15.74907,7.722215Q15.72171,7.681269,15.68689,7.646447Q15.65206,7.611625,15.61112,7.584265Q15.570170000000001,7.556906,15.52468,7.53806Q15.47918,7.519215,15.43088,7.509607Q15.38258,7.5,15.33333,7.5L14,7.5Q13.9507543,7.5,13.9024549,7.509607Q13.854155,7.519215,13.808658,7.53806Q13.763161,7.556906,13.722215,7.584265Q13.681269,7.611625,13.646447,7.646447Q13.611625,7.681269,13.584265,7.722215Q13.556906,7.763161,13.53806,7.808658Q13.519214999999999,7.854155,13.509607,7.9024549Q13.5,7.9507543,13.5,8Q13.5,8.0492457,13.509607,8.0975451Q13.519214999999999,8.145845,13.53806,8.191342Q13.556906,8.236839,13.584265,8.277785Q13.611625,8.318731,13.646447,8.353553Q13.681269,8.388375,13.722215,8.415735Q13.763161,8.443094,13.808658,8.46194Q13.854155,8.480785000000001,13.9024549,8.490393Q13.9507543,8.5,14,8.5Z" fill-rule="evenodd" fill="#000000" fill-opacity="1"/></g><g><path d="M3.166785421875,13.54021786376953L4.1134524218749995,12.593550863769531Q4.183782421875,12.523224863769531,4.2218424218749995,12.431339863769532Q4.259902421875,12.339454063769532,4.259902421875,12.239997863769531Q4.259902421875,12.14054166376953,4.2218424218749995,12.04865586376953Q4.183782421875,11.956770863769531,4.1134524218749995,11.886444863769531Q4.043122421875,11.81611786376953,3.951242421875,11.778057863769531Q3.859352421875,11.739997863769531,3.759899421875,11.739997863769531Q3.660443421875,11.739997863769531,3.568557421875,11.778057863769531Q3.476671421875,11.81611786376953,3.406345421875,11.886444863769531L2.459679421875,12.833110863769532Q2.389352421875,12.903436863769532,2.3512924218749998,12.99532286376953Q2.313232421875,13.087208863769531,2.313232421875,13.186664863769531Q2.313232421875,13.286117863769531,2.3512924218749998,13.37800786376953Q2.389352421875,13.46988786376953,2.459679421875,13.54021786376953Q2.530005421875,13.610547863769531,2.621890421875,13.64860786376953Q2.713776221875,13.68666786376953,2.813232421875,13.68666786376953Q2.912688621875,13.68666786376953,3.004574421875,13.64860786376953Q3.096459421875,13.610547863769531,3.166785421875,13.54021786376953Z" fill-rule="evenodd" fill="#000000" fill-opacity="1"/></g><g><path d="M12.593543234375,4.113559233398437L13.540210234375,3.1668922333984373Q13.610540234375,3.0965662333984376,13.648600234375,3.0046812333984376Q13.686660234375,2.9127954333984376,13.686660234375,2.8133392333984375Q13.686660234375,2.7138830333984374,13.648600234375,2.6219972333984374Q13.610540234375,2.5301122333984374,13.540210234375,2.4597862333984377Q13.469880234375,2.3894592333984375,13.378000234375,2.3513992333984373Q13.286110234375,2.3133392333984375,13.186657234375,2.3133392333984375Q13.087201234375,2.3133392333984375,12.995315234375,2.3513992333984373Q12.903429234375,2.3894592333984375,12.833103234375,2.4597862333984377L11.886437234375,3.4064522333984373Q11.816110234375,3.4767782333984374,11.778050234375,3.5686642333984375Q11.739990234375,3.6605502333984377,11.739990234375,3.7600062333984376Q11.739990234375,3.8594592333984377,11.778050234375,3.9513492333984375Q11.816110234375,4.043229233398438,11.886437234375,4.113559233398437Q11.956763234375,4.183889233398437,12.048648234375,4.221949233398437Q12.140534034375,4.260009233398438,12.239990234375,4.260009233398438Q12.339446434375,4.260009233398438,12.431332234375,4.221949233398437Q12.523217234375,4.183889233398437,12.593543234375,4.113559233398437Z" fill-rule="evenodd" fill="#000000" fill-opacity="1"/></g></g></svg>