<?xml version="1.0" standalone="no"?><!DOCTYPE svg PUBLIC "-//W3C//DTD SVG 1.1//EN" "http://www.w3.org/Graphics/SVG/1.1/DTD/svg11.dtd"><svg class="icon" width="200px" height="200.00px" viewBox="0 0 1024 1024" version="1.1" xmlns="http://www.w3.org/2000/svg"><path  d="M736.81 561.945c107.348 0 195.19 89.56 195.19 199.028C932 870.44 844.168 960 736.81 960c-107.357 0-195.189-89.569-195.189-199.027 0-109.459 87.781-199.028 195.19-199.028z m26.762 93.76l-2.547 2.911c-6.5 6.572-15.238 10.561-24.898 10.561s-18.487-4.036-24.987-10.655l-2.46-2.817c-3.381-3.895-10.011-5.631-14.71-3.802 0 0-4.216 1.643-13.877 7.557l-0.824 0.515c-9.03 5.67-12.218 8.591-12.218 8.591-3.82 3.427-5.709 10.374-4.26 15.49l1.055 3.709c2.064 9.34 0.966 19.48-3.865 28.444-4.83 8.965-12.513 15.069-21.119 17.792l-3.513 0.844c-4.83 1.174-9.573 6.431-10.451 11.689 0 0-0.769 4.564-0.79 16.123v0.493c0 11.923 0.79 16.616 0.79 16.616 0.878 5.257 5.577 10.515 10.451 11.688l3.426 0.845c8.607 2.723 16.335 8.825 21.166 17.837 4.83 8.966 5.973 19.152 3.865 28.492l-1.01 3.615c-1.449 5.07 0.44 12.063 4.26 15.537 0 0 3.326 3.009 12.67 8.802l0.416 0.257c8.54 5.27 12.79 7.128 13.662 7.489l0.075 0.03 0.095 0.038c4.699 1.83 11.286 0.094 14.71-3.802l2.416-2.77c6.542-6.619 15.325-10.655 25.03-10.655 9.705 0 18.531 4.083 25.03 10.702l2.416 2.77c3.381 3.895 10.012 5.633 14.71 3.802 0 0 4.216-1.643 13.877-7.557 9.661-5.962 13.042-9.06 13.042-9.06 3.82-3.426 5.709-10.42 4.26-15.537l-1.055-3.755c-2.064-9.294-0.966-19.433 3.865-28.352 4.83-8.965 12.559-15.114 21.166-17.837l3.425-0.844c4.83-1.174 9.574-6.431 10.452-11.688 0 0 0.79-4.694 0.79-16.617-0.046-11.97-0.837-16.664-0.837-16.664v0.002c-0.878-5.21-5.577-10.515-10.452-11.689l-3.644-0.891c-8.563-2.77-16.16-8.825-20.99-17.744-4.83-8.965-5.973-19.151-3.865-28.491l1.142-3.662c1.449-5.07-0.44-12.063-4.26-15.537 0 0-3.425-3.098-13.086-9.06-9.661-5.914-13.833-7.557-13.833-7.557-4.699-1.83-11.285-0.093-14.71 3.803z m-27.464 51.468c30.89 0 56 25.066 56 56.028-0.057 30.906-25.11 55.972-56 55.972-30.891 0-56-25.066-56-56.027 0-30.906 25.053-55.973 56-55.973zM767.32 64c35.213 0.108 63.732 29.188 63.838 65.092v402.622c-29.274-14.93-63.432-19.91-97.59-19.91-33.522 0-65.282 6.59-94.126 18.592-17.74-46.991-53.057-85.437-97.89-107.275 32.151-25.362 52.833-64.646 52.974-108.595C594.526 238.14 532.386 176 456 176c-76.14 0-138.28 62.14-138.28 138.526 0 43.946 20.618 83.228 52.74 108.583C305.128 454.932 260 522.017 260 599.439 260 612.947 271.053 624 284.561 624c13.51 0 24.562-11.053 24.562-24.561 0-79.094 62.68-143.686 141.026-146.754 1.94 0.081 3.891 0.122 5.851 0.122s3.91-0.04 5.85-0.13c62.708 2.462 115.38 44.333 133.91 101.507-64.49 44.362-106.181 119.589-106.181 206.406 0 54.73 19.526 109.469 48.8 149.268H155.837c-35.212-0.107-63.731-29.187-63.837-65.092V129.092c0.106-35.904 28.625-64.984 63.837-65.092zM456 225.123c49.123 0 89.404 40.28 89.404 89.403 0 47.3-37.347 86.175-83.973 88.987-1.804-0.05-3.615-0.074-5.431-0.074-1.82 0-3.634 0.025-5.44 0.082-46.605-2.81-83.718-41.462-83.718-88.995 0-49.368 40.035-89.403 89.158-89.403z" /></svg>