<svg t="1666696700278" class="icon" viewBox="0 0 1024 1024" version="1.1" xmlns="http://www.w3.org/2000/svg" p-id="2544" width="200" height="200"><path d="M512 514m-448 0a448 448 0 1 0 896 0 448 448 0 1 0-896 0Z" fill="#69B452" p-id="2545"></path><path d="M512 512m-253.15 0a253.15 253.15 0 1 0 506.3 0 253.15 253.15 0 1 0-506.3 0Z" fill="#FFFFFF" p-id="2546"></path><path d="M512 512m-203.07 0a203.07 203.07 0 1 0 406.14 0 203.07 203.07 0 1 0-406.14 0Z" fill="#D1F0C7" p-id="2547"></path><path d="M622.12 497h-91.31a24.09 24.09 0 0 0-11.46-7.92V360.22a6 6 0 0 0-6-6h-2.81a6 6 0 0 0-6 6v128.93a24.06 24.06 0 1 0 26.19 38.08h91.49a6 6 0 0 0 6-6V503a6 6 0 0 0-6.1-6z" fill="#69B452" p-id="2548"></path></svg>