<svg xmlns="http://www.w3.org/2000/svg" xmlns:xlink="http://www.w3.org/1999/xlink" version="1.1" width="20" height="20" viewBox="0 0 20 20"><defs><clipPath id="master_svg0_3_4717"><rect x="0" y="0" width="20" height="20" rx="0"/></clipPath></defs><g clip-path="url(#master_svg0_3_4717)"><g><path d="M7.8125025,6.204975156250001C7.8125025,6.204975156250001,9.2558625,6.204975156250001,9.2558625,6.204975156250001C9.2558625,6.204975156250001,9.2558625,12.81239515625,9.2558625,12.81239515625C9.2558625,12.89833515625,9.3261725,12.96864515625,9.4121125,12.96864515625C9.4121125,12.96864515625,10.583982500000001,12.96864515625,10.583982500000001,12.96864515625C10.6699225,12.96864515625,10.7402325,12.89833515625,10.7402325,12.81239515625C10.7402325,12.81239515625,10.7402325,6.204975156250001,10.7402325,6.204975156250001C10.7402325,6.204975156250001,12.1875025,6.204975156250001,12.1875025,6.204975156250001C12.3183625,6.204975156250001,12.3906225,6.054575156249999,12.3105425,5.95301515625C12.3105425,5.95301515625,10.1230425,3.18348615625,10.1230425,3.18348615625C10.1084325,3.16481075625,10.0897525,3.14970725625,10.0684325,3.13932025625C10.0471225,3.12893324625,10.0237125,3.12353515625,10.0000025,3.12353515625C9.9762825,3.12353515625,9.952882500000001,3.12893324625,9.9315625,3.13932025625C9.910242499999999,3.14970725625,9.891572499999999,3.16481075625,9.8769525,3.18348615625C9.8769525,3.18348615625,7.6894525,5.951065156249999,7.6894525,5.951065156249999C7.6093725,6.05458515625,7.6816425,6.204975156250001,7.8125025,6.204975156250001C7.8125025,6.204975156250001,7.8125025,6.204975156250001,7.8125025,6.204975156250001ZM17.1484125,12.22645515625C17.1484125,12.22645515625,15.9765125,12.22645515625,15.9765125,12.22645515625C15.8906125,12.22645515625,15.8203125,12.29676515625,15.8203125,12.38270515625C15.8203125,12.38270515625,15.8203125,15.39053515625,15.8203125,15.39053515625C15.8203125,15.39053515625,4.1796925,15.39053515625,4.1796925,15.39053515625C4.1796925,15.39053515625,4.1796925,12.38270515625,4.1796925,12.38270515625C4.1796925,12.29676515625,4.1093725,12.22645515625,4.0234325,12.22645515625C4.0234325,12.22645515625,2.8515625,12.22645515625,2.8515625,12.22645515625C2.765625,12.22645515625,2.6953125,12.29676515625,2.6953125,12.38270515625C2.6953125,12.38270515625,2.6953125,16.24993515625,2.6953125,16.24993515625C2.6953125,16.595635156249998,2.9746095,16.87493515625,3.3203125,16.87493515625C3.3203125,16.87493515625,16.6797125,16.87493515625,16.6797125,16.87493515625C17.0254125,16.87493515625,17.3047125,16.595635156249998,17.3047125,16.24993515625C17.3047125,16.24993515625,17.3047125,12.38270515625,17.3047125,12.38270515625C17.3047125,12.29676515625,17.234412499999998,12.22645515625,17.1484125,12.22645515625Z" fill-opacity="1"/></g></g></svg>