<svg xmlns="http://www.w3.org/2000/svg" xmlns:xlink="http://www.w3.org/1999/xlink" fill="none" version="1.1" width="43.9310302734375" height="38.405059814453125" viewBox="0 0 43.9310302734375 38.405059814453125"><g><g><path d="M39.6164,0L4.31466,0C1.93174,0,0,1.81865,0,4.06207L0,6.27775C0,8.13712,1.32695,9.7047,3.13794,10.1869L3.13794,33.2352L3.13894,33.3206C3.19607,36.1348,5.62844,38.3966,8.62463,38.4051L35.3017,38.4051L35.3925,38.4041C38.3817,38.3503,40.7842,36.0604,40.7931,33.2396L40.7931,10.1869C42.6041,9.70469,43.931,8.13711,43.931,6.27775L43.931,4.06207C43.931,1.81865,41.9993,0,39.6164,0ZM37.6552,10.3398L6.27587,10.3398L6.27586,33.2307C6.27971,34.4431,7.31229,35.4273,8.59051,35.4504L8.62932,35.4508L35.297,35.4508C36.5848,35.4472,37.6302,34.4751,37.6548,33.2717L37.6552,33.2352L37.6552,10.3398ZM4.31466,2.95422L39.6164,2.95422C40.2663,2.95422,40.7931,3.45022,40.7931,4.06206L40.7931,6.27774C40.7931,6.88958,40.2663,7.38558,39.6164,7.38558L4.31466,7.38558C3.66478,7.38558,3.13794,6.88958,3.13794,6.27774L3.13794,4.06206C3.13794,3.45022,3.66478,2.95422,4.31466,2.95422ZM23.5342,16.2192C23.5177,15.4169,22.8217,14.7712,21.9655,14.7712C21.099,14.7712,20.3965,15.4325,20.3965,16.2483L20.3965,25.9763L16.7991,22.5894L16.7733,22.5657C16.1588,22.0127,15.1844,22.0206,14.5802,22.5894C13.9675,23.1663,13.9675,24.1015,14.5802,24.6784L20.8561,30.5868L20.8818,30.6105C21.4963,31.1636,22.4707,31.1557,23.075,30.5868L29.3508,24.6784L29.376,24.6541C29.9634,24.0756,29.955,23.1582,29.3508,22.5894C28.7381,22.0126,27.7447,22.0126,27.132,22.5894L23.5345,25.9763L23.5345,16.2483L23.5342,16.2192Z" fill-rule="evenodd" fill="#000000" fill-opacity="0.3799999952316284"/></g></g></svg>