<svg t="1689321673690" class="icon" viewBox="0 0 1390 1024" version="1.1" xmlns="http://www.w3.org/2000/svg" p-id="13002"><path d="M605.915622 175.81019l0.767176-8.822524c0.383588 3.375574 0.537023 6.060691 0.076718 7.825195l-1.687787 2.071375c0.383588-0.613741 0.690458-1.074046 0.767176-1.074046z m5.370232-58.612248c-38.512236 4.219468-78.942413-6.137408-102.341281-34.829791-15.34352-18.795813-13.502298-24.472915-20.176729-51.630947-4.909927-19.793141-17.568331-29.843147-39.432848-27.311466L269.892525 23.986055c-35.596967 4.066033-73.802333 75.18325-96.127156 103.03174L29.306124 313.978592C-47.488196 410.02903 38.282084 433.197745 153.435204 524.721845c23.015281 18.258789 49.789724 47.718349 87.918373 43.345445 43.038575-4.909927 60.376753-55.850414 86.460737-78.098519 8.669089 75.796991 42.88514 413.124288 54.08591 470.892642 8.975959 46.567585 42.501552 67.895078 93.442039 62.064541l219.48906-25.163374 232.60777 22.324822c51.017205 4.909927 84.15921-17.108025 92.291276-63.752327 10.050006-57.998507 38.051931-395.862827 45.340102-471.813254 26.54429 21.711081 44.726362 72.344699 87.918373 76.48745 38.205366 3.682445 64.442786-26.23742 87.074478-44.956515 113.465334-93.595475 198.775307-118.37526 120.216483-212.968064l-147.83482-184.27568c-22.785128-27.464902-62.294693-97.814943-97.968378-101.267235L934.727265 0.280316c-21.941234-2.148093-34.446203 8.132066-38.972542 28.001925-6.214126 27.234749-4.296186 32.911851-19.1794 51.937817-22.248105 28.308795-60.837059 39.586283-98.428684 36.977884l-0.920611-0.076718h-0.843894l-1.534352-0.153435c-0.997329-1.61107-1.074046-1.534352-0.613741 0-13.732451-0.690458 1.074046 2.22481-8.975959-0.690458 2.991986 20.330165-116.917626 186.270338-121.827552 204.75928l119.219154 92.598146c27.771772 21.327493 8.592371 29.382842-30.993912 68.892407-17.184743 17.26146-32.604981 32.221393-49.866441 49.559571-9.819853 9.819853-7.595043 10.8939-2.838551 35.903837l16.187414 83.315316c3.298857 15.573673 4.603056 28.001925-15.113368 28.001925-15.113368 0-23.475586-47.02789-29.919865-69.506147-3.989315-14.039321-6.827867-24.703068-11.047335-38.665672-12.121381-40.583612-18.949248-37.131319 4.986645-63.752327 7.134737-7.978631 11.891228-14.422909 18.719094-23.091999 6.290843-7.978631 12.504969-15.266803 19.179401-22.70841 4.603056-5.140079 5.063362-6.520996 9.359547-11.584358 4.449621-5.293515 5.907255-5.677103 9.666418-11.277487l-119.756177-76.410732c-48.025219-32.221393-46.951173-22.017952-12.504969-71.654241l72.728287-113.005028c-0.843894-0.076718 31.454217-66.821032 30.610323-66.744313-18.87253 1.91794-44.80308 5.44695-60.837058 6.214125z m90.143183 819.343991l-3.298857-2.685116-252.477629 28.922536-60.223318-524.825116c-5.600385-48.869113-33.755745-46.107279-55.00652-43.729034-14.192756 1.61107-43.49888 40.9672-52.014535 52.47484-13.885886 18.949248-25.853832 50.019877-48.869112 59.072554L59.993165 375.275956c10.663747-20.713753 39.969871-53.011863 56.31072-73.495463 12.81184-16.033979 16.340849-22.324822 27.541619-39.279413l89.145854-112.698157c65.823703-82.087834 3.145422-62.831716 200.386377-85.463409 9.28283 67.434772 86.38402 117.454649 168.395137 116.45732l-70.350042 86.537455c-11.967946 16.110696-31.607652 41.197352-31.607652 60.300036 0 12.735122 1.074046 18.105354 6.444279 28.769101 4.219468 8.285501 7.748478 11.584358 14.806497 16.95459l75.336686 49.329418c3.452292 2.378246 6.290843 3.83588 9.743135 6.137408 3.145422 1.994658 28.538948 17.414896 28.538948 19.102683 0 2.915269-1.457634 2.915269-3.068704 4.909927-9.973288 11.967946-14.192756 19.025965-26.160702 31.684369-2.071375 2.148093-1.841222 2.454963-3.452292 4.449621-1.457634 1.764505-2.378246 2.378246-3.759163 4.142751-19.562989 24.472915-20.867188 30.533606-9.896571 63.522174l16.877873 55.69698c6.981302 25.853832 13.809168 60.530188 27.388184 81.397375 11.047335 16.877872 25.393526 26.083985 42.424834 27.388184h8.899242c5.600385-0.383588 11.354205-1.61107 17.414895-3.529009 20.943905-6.674431 35.290097-28.385513 35.290097-47.488196 0-25.163374-4.679774-38.665672-9.5897-64.135915-1.764505-9.28283-3.298857-17.568331-4.909926-25.700397-6.751149-33.985898-8.899242-22.248105 9.052677-40.276741 8.669089-8.669089 65.363397-63.905763 70.04317-70.503477 8.362219-11.891228 16.801155-24.31948 18.105355-37.74506v-7.134737c-0.613741-6.367561-3.068704-12.888557-7.901913-19.793141-1.91794-2.685116-4.066033-5.75382-6.520997-8.208784l-64.596221-52.167969c-3.068704-2.531681-5.293515-4.296186-8.285501-6.444279l-32.911851-26.083985 85.309974-131.263817c82.24127-0.30687 158.728719-51.784381 166.784067-119.526024 197.701261 18.949248 134.639392 0.920611 201.920729 81.780964l91.217229 111.01037c11.50764 16.801155 15.113368 22.938563 28.232077 38.819107 16.724437 20.176729 46.644302 51.937817 57.691637 72.421416l-167.090937 133.642063c-23.091998-8.592371-35.673685-39.432848-49.943159-58.151942-8.669089-11.430923-38.742389-50.173312-52.935146-51.554229-21.250776-2.071375-49.482853-4.296186-54.162627 44.726362l-50.480182 525.822446-252.937935-24.31948-1.611069 1.380917z" fill="#0081ff" p-id="13003"></path></svg>