<svg t="1688998027586" class="icon" viewBox="0 0 1024 1024" version="1.1" xmlns="http://www.w3.org/2000/svg" p-id="40587"><path d="M1013.76 180.224c-1.024-20.992-19.968-37.888-40.448-36.864-180.224 9.728-436.224-123.904-438.784-125.44-1.024-0.512-1.536-1.024-2.56-1.536-14.848-7.168-32.256-3.584-43.52 7.168-49.664 24.576-267.776 128.512-428.544 120.32-20.48-1.024-37.888 13.824-39.936 34.304-58.368 504.832 202.24 783.36 487.424 836.608 3.072 0.512 6.144 1.024 9.216 1.024h6.656c205.824-37.376 373.76-185.344 449.536-396.288 7.168-19.968-3.072-41.984-23.04-49.664-19.968-7.168-41.984 3.072-49.664 23.04-65.536 182.272-208.896 310.784-384 345.088C291.84 893.952 52.736 680.96 93.184 221.696c168.448-5.12 365.568-96.768 424.448-125.952 62.976 30.72 268.288 125.44 438.272 125.44 7.168 0 14.336 0 21.504-0.512 20.992-1.024 37.376-18.944 36.352-40.448z" fill="#d81e06" p-id="40588"></path><path d="M291.328 739.328V267.776h158.72V317.44l-38.912 136.192c28.672 38.4 42.496 79.872 40.96 123.392 1.536 54.784-18.432 83.968-59.904 86.528-8.192 1.536-19.456 2.048-32.768 2.048-1.536-2.56-2.56-6.656-4.096-12.288-4.096-17.92-8.192-31.744-12.288-40.96h30.72c20.48 1.536 30.72-13.824 30.72-45.568 1.536-32.768-12.288-67.072-40.96-102.912L402.432 317.44H340.48v422.4h-49.152z m453.12-10.24c-94.72-39.936-153.6-108.544-177.152-205.824h-36.864v148.48c4.096-1.536 11.776-4.096 22.528-8.192 9.728-5.632 28.672-13.824 57.856-24.576 0 6.656 0.512 17.408 2.048 30.72v18.432c-12.288 4.096-31.744 11.776-57.856 22.528-12.288 4.096-21.504 7.68-26.624 10.24-1.536 0-2.56 0.512-4.096 2.048-13.824 5.632-24.576 10.752-32.768 16.384l-26.624-43.008c12.288-10.752 17.92-24.576 16.384-40.96V269.824h249.344v253.44H619.52c8.192 26.112 17.92 48.64 28.672 68.096 31.744-19.456 59.904-38.4 84.48-57.856l30.72 38.912c-6.656 4.096-17.408 10.24-30.72 18.432-24.576 15.36-43.008 26.624-55.808 34.816 22.016 22.016 54.272 40.448 96.768 55.808-11.264 16.896-20.992 32.768-29.184 47.616zM529.92 317.44v57.856h150.528V317.44h-150.528z m0 158.208h150.528V418.304h-150.528v57.344z" fill="#d81e06" p-id="40589"></path></svg>