<svg t="1688980757494" class="icon" viewBox="0 0 1024 1024" version="1.1" xmlns="http://www.w3.org/2000/svg" p-id="39249"><path d="M512 971.92C258.4 971.92 52.088 765.6 52.088 512 52.088 258.4 258.4 52.08 512 52.08c253.6 0 459.92 206.32 459.92 459.92 0 22.096-17.904 40-40 40s-40-17.904-40-40c0-209.488-170.432-379.92-379.92-379.92-209.488 0-379.912 170.432-379.912 379.92 0 209.496 170.432 379.92 379.912 379.92 22.096 0 40 17.904 40 40s-17.904 40-40 40z" p-id="39250" fill="#d81e06"></path><path d="M972.856 608.728a40.008 40.008 0 0 0-56.568-0.008l-228.504 228.496-66.376-66.384a40.008 40.008 0 0 0-56.576 56.56l94.664 94.672a39.84 39.84 0 0 0 28.288 11.72 39.84 39.84 0 0 0 28.28-11.712l0.032-0.04 256.76-256.744a39.984 39.984 0 0 0 0-56.56zM657.928 596.064v102.304H340.4v-60.2c25.992-28.696 55.832-59.256 89.52-91.704 75.488-72.152 113.224-127.36 113.224-165.624 0-50.944-20.168-76.416-60.504-76.416-49.08 0-73.616 30.776-73.616 92.328 0 14.552 3.536 35.04 10.608 61.448l-65.816-15.592c-4.992-19.544-7.488-35.248-7.488-47.104 0-86.296 53.336-129.448 160.008-129.448 45.128 0 82.24 11.128 111.36 33.376 29.112 22.256 43.664 50.744 43.664 85.464 0 39.72-28.808 82.976-86.4 129.76l-38.68 31.192-42.728 35.864c-2.704 2.288-9.36 7.072-19.968 14.352h184.344z" p-id="39251" fill="#d81e06"></path></svg>