<?xml version="1.0" standalone="no"?>
<!DOCTYPE svg PUBLIC "-//W3C//DTD SVG 20010904//EN"
 "http://www.w3.org/TR/2001/REC-SVG-20010904/DTD/svg10.dtd">
<svg version="1.0" xmlns="http://www.w3.org/2000/svg"
 width="1182.000000pt" height="1182.000000pt" viewBox="0 0 1182.000000 1182.000000"
 preserveAspectRatio="xMidYMid meet">

<g transform="translate(0.000000,1182.000000) scale(0.100000,-0.100000)"
fill="#000000" stroke="none">
<path d="M4751 8579 c-407 -37 -786 -181 -1103 -420 -197 -148 -199 -151
-1798 -2239 -827 -1081 -1519 -1993 -1537 -2027 -42 -76 -73 -197 -73 -278 0
-128 59 -287 147 -395 142 -176 340 -266 608 -277 l130 -5 341 444 c187 243
349 457 360 473 10 17 303 397 650 845 346 448 996 1290 1443 1870 448 580
821 1063 830 1073 16 16 50 17 505 15 l488 -3 -1274 -1715 c-700 -943 -1307
-1760 -1347 -1815 -41 -55 -66 -93 -55 -85 10 8 224 186 474 395 716 597 1140
916 1681 1266 822 531 1771 998 2829 1391 214 80 595 208 723 244 37 10 67 22
67 25 0 4 -27 71 -61 149 -33 78 -59 144 -56 146 2 2 278 3 612 2 l608 -3
-447 -353 c-246 -194 -453 -355 -460 -358 -8 -3 -30 36 -66 121 l-54 127 -34
-7 c-46 -9 -449 -140 -639 -209 -715 -258 -1526 -618 -2101 -932 -208 -114
-432 -245 -432 -253 0 -5 1903 -2738 1914 -2748 6 -7 180 62 295 117 215 104
395 234 556 401 59 62 599 759 1560 2013 809 1055 1495 1955 1525 2000 128
188 144 406 45 611 -88 182 -256 314 -480 377 l-80 23 -3100 1 c-1705 1 -3142
-2 -3194 -7z m6298 -204 c232 -55 400 -249 401 -461 0 -59 -29 -162 -61 -213
-12 -19 -695 -915 -1519 -1991 -1358 -1773 -1510 -1967 -1613 -2066 -128 -125
-285 -235 -440 -310 -84 -40 -100 -45 -111 -33 -26 28 -1697 2431 -1693 2435
14 15 332 187 532 288 641 326 1346 624 2017 851 196 67 219 72 227 57 4 -9
37 -84 71 -167 35 -82 66 -154 71 -159 4 -5 366 274 804 620 l796 629 -1062 3
c-584 1 -1064 0 -1067 -3 -3 -2 30 -85 72 -184 42 -99 76 -184 76 -188 0 -4
-27 -16 -61 -26 -158 -46 -629 -219 -944 -345 -919 -369 -1730 -782 -2443
-1244 -253 -164 -627 -425 -842 -587 -32 -24 -30 -21 21 49 31 41 407 548 835
1125 429 578 839 1130 912 1228 l132 177 -758 0 -757 0 -695 -902 c-382 -496
-1108 -1435 -1613 -2087 -505 -652 -922 -1195 -927 -1206 -5 -11 -96 -132
-202 -270 -193 -249 -194 -250 -235 -253 -111 -8 -275 60 -369 154 -141 141
-179 331 -99 498 30 62 2964 3896 3072 4015 288 316 700 519 1153 570 41 5
1466 9 3165 10 2725 1 3098 -1 3154 -14z"/>
<path d="M4941 5293 c-94 -61 -399 -285 -596 -438 -707 -551 -1418 -1202
-2025 -1857 l-53 -58 2156 0 2157 0 -114 173 c-211 322 -1458 2202 -1464 2209
-4 3 -31 -10 -61 -29z m562 -1113 c308 -465 588 -889 623 -942 l64 -98 -1723
0 -1722 0 170 171 c559 561 1188 1108 1824 1583 101 75 188 135 193 134 6 -2
262 -384 571 -848z"/>
</g>
</svg>
